<svg width="73" height="94" viewBox="0 0 73 94" fill="none" xmlns="http://www.w3.org/2000/svg">
<g clip-path="url(#clip0_1755_1366)">
<path d="M29.6133 90.8964V82.6152C27.4028 82.752 25.2472 83.2394 23.2188 84.0452C24.8455 87.6958 27.1034 90.2324 29.6133 90.8964Z" fill="#E95018"/>
<path d="M20.8414 85.1699C19.8883 85.6971 18.9751 86.2989 18.1094 86.9754C19.8733 88.3556 21.8668 89.4572 24.0199 90.2132C23.1267 89.2185 22.3009 88.0198 21.5549 86.6322C21.3029 86.1622 21.0659 85.6723 20.8389 85.1699H20.8414Z" fill="#E95018"/>
<path d="M23.2188 57.2965C25.2472 58.1023 27.4003 58.5897 29.6133 58.7265V50.4453C27.1034 51.1093 24.8455 53.6434 23.2188 57.2941V57.2965Z" fill="#E95018"/>
<path d="M21.5569 54.7124C22.3004 53.3223 23.1287 52.1236 24.0219 51.1289C21.8687 51.8874 19.8753 52.9891 18.1113 54.3668C18.9771 55.0432 19.8902 55.645 20.8433 56.1722C21.0704 55.6699 21.3074 55.18 21.5594 54.71L21.5569 54.7124Z" fill="#E95018"/>
<path d="M34.719 15.2285C33.9705 15.2285 33.222 15.512 32.6507 16.0815C32.0993 16.6311 31.7949 17.3647 31.7949 18.1431C31.7949 18.9215 32.0993 19.6551 32.6507 20.2047C33.7909 21.3412 35.6471 21.3412 36.7873 20.2047C37.3412 19.6551 37.6431 18.9215 37.6431 18.1431C37.6431 17.3647 37.3387 16.6336 36.7873 16.0815C36.2185 15.512 35.47 15.2285 34.719 15.2285Z" fill="#E95018"/>
<path d="M22.1678 14.7473L19.3211 14.4241C18.7497 14.3594 18.2507 14.5583 17.879 14.996L10.2145 24.0854C10.2145 24.0854 10.207 24.1003 10.2095 24.1128C10.2095 24.1302 10.2295 24.1352 10.2394 24.1376C10.2444 24.1376 10.2569 24.1376 10.2619 24.1302C11.2624 23.1404 12.4799 22.5709 13.8846 22.4441L16.4644 22.2103C17.9713 19.4549 20.0845 16.8935 22.1653 14.7498L22.1678 14.7473Z" fill="#E95018"/>
<path d="M13.6406 33.25L14.4989 32.3945L20.4169 38.2933L19.5587 39.1488L13.6406 33.25Z" fill="#E95018"/>
<path d="M38.128 30.6543C35.9773 32.7283 33.4075 34.8347 30.6431 36.3367L30.4061 38.9106C30.2789 40.3107 29.71 41.5243 28.7145 42.5215C28.707 42.529 28.707 42.5389 28.707 42.5439C28.707 42.5613 28.7145 42.5712 28.732 42.5737C28.7445 42.5762 28.7519 42.5737 28.7594 42.5687L37.8785 34.9292C38.3201 34.5586 38.5197 34.0613 38.4548 33.4918L38.128 30.6543Z" fill="#E95018"/>
<path d="M40.2858 86.6308C39.5498 88.0085 38.7289 89.1972 37.8457 90.1869C39.9664 89.4334 41.9549 88.3442 43.7238 86.9665C42.8606 86.2926 41.9524 85.6907 41.0018 85.166C40.7748 85.6684 40.5378 86.1583 40.2858 86.6308Z" fill="#E95018"/>
<path d="M41.0018 56.1747C41.9499 55.65 42.8606 55.0481 43.7238 54.3742C41.9549 52.999 39.9664 51.9098 37.8457 51.1562C38.7314 52.146 39.5498 53.3347 40.2858 54.7124C40.5378 55.1824 40.7748 55.6723 41.0018 56.1747Z" fill="#E95018"/>
<path d="M32.2324 50.4473V58.7284C34.443 58.5892 36.5986 58.1042 38.6245 57.2985C36.9978 53.6478 34.7399 51.1113 32.2324 50.4498V50.4473Z" fill="#E95018"/>
<path d="M32.2324 82.6152V90.8964C34.7424 90.2324 37.0003 87.6958 38.6245 84.0452C36.5961 83.2394 34.4405 82.752 32.2324 82.6152Z" fill="#E95018"/>
<path d="M10.2397 26.7481H10.2996C10.9857 26.7332 11.6294 26.4597 12.1109 25.9822C12.6823 25.4152 13.3235 25.1168 14.1244 25.0446L15.2147 24.9452C14.6433 26.5094 14.314 28.1059 14.3339 29.705C13.7776 29.7448 13.2287 29.9736 12.8045 30.3988L11.6419 31.5577C11.1878 32.0103 10.9383 32.6121 10.9383 33.2537C10.9383 33.8953 11.1878 34.4971 11.6419 34.9497L17.8643 41.1519C18.3184 41.6045 18.9222 41.8532 19.5659 41.8532C20.2096 41.8532 20.8133 41.6045 21.2649 41.1519L22.4276 39.993C22.8417 39.5827 23.0813 39.0455 23.1237 38.4686C23.1711 38.4686 23.216 38.4686 23.2634 38.4686C24.8202 38.4686 26.3771 38.1428 27.899 37.5883L27.7992 38.675C27.7269 39.4733 27.4275 40.1124 26.8586 40.6819C26.3771 41.1643 26.1052 41.8059 26.0902 42.4898C26.0602 43.8078 27.0258 44.9568 28.3356 45.1582C28.4704 45.1806 28.6076 45.188 28.7423 45.188C29.3636 45.188 29.9674 44.9717 30.4489 44.5688L39.5679 36.9292C40.6807 35.9967 41.2246 34.6364 41.0599 33.194L40.4886 28.2303C40.9601 27.7155 41.3968 27.2206 41.7935 26.7581C47.4595 20.1456 51.7833 12.317 52.8062 6.8186C53.1829 4.79183 52.6515 2.94162 51.3092 1.6037C49.9669 0.265786 48.1107 -0.261424 46.0798 0.114089C40.5634 1.13369 32.7093 5.44338 26.0752 11.091C25.6112 11.4864 25.1147 11.9216 24.5982 12.3916L19.6183 11.8246C18.1737 11.6605 16.8064 12.2026 15.8708 13.3117L8.20632 22.4011C7.71481 22.9855 7.50024 23.7515 7.61751 24.5075C7.8171 25.7907 8.93734 26.7456 10.2372 26.7456L10.2397 26.7481ZM19.5634 39.15L13.6453 33.2512L14.5036 32.3957L20.4216 38.2945L19.5609 39.1525L19.5634 39.15ZM37.8789 34.9298L28.7598 42.5694C28.7598 42.5694 28.7448 42.5769 28.7323 42.5744C28.7149 42.5719 28.7049 42.5619 28.7074 42.5445C28.7074 42.5396 28.7074 42.5271 28.7149 42.5197C29.7079 41.5224 30.2767 40.3089 30.4065 38.9088L30.6435 36.3374C33.4079 34.8353 35.9777 32.729 38.1284 30.6549L38.4552 33.4924C38.5201 34.0644 38.3205 34.5618 37.8789 34.9298ZM27.7768 13.0805C33.9917 7.79096 41.539 3.61307 46.5588 2.68548C47.7489 2.46415 48.7244 2.72527 49.458 3.4564C50.1915 4.18753 50.451 5.15988 50.2314 6.34611C49.3008 11.3496 45.1093 18.8723 39.8025 25.067C33.8096 32.06 27.682 35.9967 23.0139 35.8549L21.6392 35.8151L16.9986 31.1896L16.9586 29.8194C16.8189 25.1566 20.7634 19.0588 27.7793 13.0854L27.7768 13.0805ZM10.2148 24.0847L17.8793 14.9953C18.251 14.5552 18.75 14.3562 19.3214 14.4234L22.1681 14.7466C20.0873 16.8903 17.9741 19.4517 16.4671 22.2072L13.8873 22.4434C12.4827 22.5702 11.2651 23.1372 10.2647 24.1295C10.2572 24.1369 10.2447 24.1369 10.2422 24.1369C10.2322 24.1345 10.2148 24.127 10.2123 24.1096C10.2123 24.0972 10.2123 24.0897 10.2173 24.0822L10.2148 24.0847ZM34.7202 23.6669C36.1399 23.6669 37.5595 23.1273 38.6398 22.0505C40.803 19.8969 40.803 16.3904 38.6398 14.2344C36.4792 12.0783 32.9613 12.0783 30.7982 14.2344C28.6375 16.388 28.6375 19.8944 30.7982 22.0505C31.8785 23.1273 33.2981 23.6669 34.7202 23.6669ZM32.6519 16.0821C33.2233 15.5126 33.9718 15.2291 34.7202 15.2291C35.4687 15.2291 36.2172 15.5126 36.7886 16.0821C37.34 16.6317 37.6443 17.3653 37.6443 18.1437C37.6443 18.922 37.34 19.6557 36.7886 20.2053C35.6484 21.3417 33.7921 21.3417 32.6519 20.2053C32.1005 19.6557 31.7962 18.922 31.7962 18.1437C31.7962 17.3653 32.1005 16.6342 32.6519 16.0821ZM10.0875 87.0266C10.5665 87.5662 10.5191 88.3894 9.97774 88.8693C9.72824 89.0907 9.41887 89.2001 9.10949 89.2001C8.74772 89.2001 8.38845 89.0509 8.12897 88.7599C7.63497 88.2054 7.15344 87.6234 6.69687 87.0291C6.25775 86.4571 6.36753 85.6365 6.94387 85.1988C7.5202 84.7611 8.34105 84.8705 8.78016 85.445C9.19682 85.9871 9.63593 86.5193 10.0875 87.0266ZM5.84609 83.5027C5.64649 83.6097 5.43192 83.6619 5.22235 83.6619C4.75828 83.6619 4.3067 83.4157 4.06968 82.978C1.20047 77.7159 -0.199199 71.6306 0.022852 65.3787C0.257378 58.7413 2.34815 52.0368 6.06814 45.9888C6.44737 45.3745 7.25324 45.1806 7.8695 45.5586C8.48575 45.9366 8.68036 46.7398 8.30113 47.3541C1.43999 58.51 0.718946 71.362 6.37252 81.7321C6.71683 82.3663 6.4823 83.1571 5.84609 83.5027ZM16.8938 41.8209C17.4052 42.3307 17.4052 43.1563 16.8938 43.6661L15.5116 45.0438C15.2571 45.2999 14.9203 45.4268 14.5859 45.4268C14.2516 45.4268 13.9148 45.2999 13.6603 45.0438C13.1488 44.534 13.1488 43.7084 13.6603 43.1986L15.0425 41.8209C15.554 41.3111 16.3823 41.3111 16.8963 41.8209H16.8938ZM12.1558 40.6346C12.6673 41.1444 12.6673 41.9701 12.1558 42.4799L10.5516 44.0789C10.2946 44.335 9.96027 44.4619 9.62595 44.4619C9.29163 44.4619 8.95481 44.335 8.70032 44.0814C8.18885 43.5716 8.18885 42.7435 8.70032 42.2337L10.3046 40.6346C10.816 40.1248 11.6469 40.1248 12.1583 40.6346H12.1558ZM7.72978 39.1376C7.21831 38.6278 7.21831 37.8021 7.72978 37.2923L9.11199 35.9146C9.62345 35.4048 10.4543 35.4048 10.9657 35.9146C11.4772 36.4244 11.4772 37.25 10.9657 37.7598L9.58354 39.1376C9.32905 39.3937 8.99223 39.5205 8.65791 39.5205C8.32358 39.5205 7.98676 39.3937 7.73228 39.1376H7.72978ZM59.0536 56.7692C56.1744 56.7692 53.4948 57.6446 51.2718 59.1417C49.3956 55.8566 46.7435 53.0663 43.5299 51.0147C39.7675 48.6124 35.4089 47.3416 30.9229 47.3416C18.0165 47.3416 7.51771 57.8062 7.51771 70.6707C7.51771 83.5351 18.0165 93.9997 30.9229 93.9997C35.4089 93.9997 39.77 92.7289 43.5299 90.3291C46.7435 88.2775 49.3956 85.4872 51.2718 82.2021C53.4948 83.6992 56.1744 84.5746 59.0536 84.5746C66.743 84.5746 73.0004 78.3376 73.0004 70.6731C73.0004 63.0087 66.7455 56.7717 59.0536 56.7717V56.7692ZM49.2135 60.8302C46.9705 63.0609 45.4835 66.0451 45.1716 69.3651H43.8194C43.7021 65.5154 43.0609 61.8424 41.9631 58.6219C43.2829 57.9182 44.5354 57.0851 45.708 56.1326C47.0803 57.5103 48.2654 59.087 49.2135 60.8302ZM32.2328 50.4477C34.7427 51.1092 37.0006 53.6458 38.6249 57.2964C36.5965 58.1022 34.4408 58.5896 32.2328 58.7264V50.4452V50.4477ZM20.8408 56.1749C19.8877 55.6477 18.9746 55.0434 18.1088 54.367C19.8727 52.9868 21.8662 51.8876 24.0194 51.1291C23.1262 52.1238 22.3003 53.3225 21.5543 54.7126C21.3024 55.1826 21.0653 55.6725 20.8383 56.1749H20.8408ZM29.6131 50.4477V58.7289C27.4025 58.5896 25.2469 58.1047 23.2185 57.2989C24.8452 53.6483 27.1031 51.1117 29.6131 50.4502V50.4477ZM29.6131 61.3425V69.3651H20.6462C20.7634 65.8636 21.3523 62.571 22.2829 59.736C24.6082 60.6562 27.0782 61.2033 29.6131 61.3425ZM29.6131 71.9762V79.9988C27.0782 80.1405 24.6082 80.6876 22.2829 81.6053C21.3498 78.7728 20.7634 75.4777 20.6462 71.9762H29.6131ZM29.6131 82.6149V90.8961C27.1031 90.2321 24.8452 87.698 23.2185 84.0449C25.2469 83.2391 27.4 82.7517 29.6131 82.6149ZM21.5568 86.6312C22.3003 88.0213 23.1287 89.2175 24.0219 90.2122C21.8687 89.4538 19.8752 88.3546 18.1113 86.9744C18.9771 86.298 19.8902 85.6936 20.8433 85.1664C21.0703 85.6688 21.3073 86.1587 21.5593 86.6287L21.5568 86.6312ZM32.2328 90.8961V82.6149C34.4433 82.7517 36.5989 83.2391 38.6249 84.0449C36.9981 87.6956 34.7402 90.2321 32.2328 90.8961ZM32.2328 79.9988V71.9762H41.1997C41.0824 75.4777 40.4936 78.7728 39.563 81.6053C37.2377 80.6852 34.7677 80.1405 32.2328 79.9988ZM32.2328 69.3651V61.3425C34.7677 61.2033 37.2377 60.6562 39.563 59.736C40.4936 62.5685 41.0824 65.8636 41.1997 69.3651H32.2328ZM43.7246 54.3744C42.8613 55.0483 41.9531 55.6502 41.0026 56.1749C40.7755 55.6725 40.5385 55.1826 40.2865 54.7126C39.5505 53.3349 38.7296 52.1462 37.8464 51.1564C39.9671 51.91 41.9556 52.9992 43.7246 54.3744ZM16.1303 56.1326C17.3029 57.0876 18.5604 57.9206 19.8802 58.6244C18.7824 61.8424 18.1437 65.5179 18.024 69.3651H10.1798C10.5017 64.2223 12.7147 59.5843 16.1303 56.1326ZM10.1798 71.9762H18.024C18.1437 75.8259 18.7824 79.4989 19.8802 82.7194C18.5604 83.4232 17.3054 84.2563 16.1303 85.2112C12.7122 81.757 10.5017 77.119 10.1798 71.9762ZM37.8464 90.1874C38.7321 89.1976 39.5505 88.0089 40.2865 86.6312C40.5385 86.1612 40.7755 85.6713 41.0026 85.1689C41.9506 85.6936 42.8613 86.2955 43.7246 86.9694C41.9556 88.3471 39.9671 89.4339 37.8464 90.1899V90.1874ZM45.7105 85.2087C44.5379 84.2538 43.2829 83.4232 41.9656 82.7194C43.0634 79.4989 43.7021 75.8284 43.8194 71.9762H45.1716C45.4835 75.2962 46.9705 78.2829 49.2135 80.5111C48.2679 82.2519 47.0803 83.8285 45.7105 85.2087ZM59.0536 81.9609C52.8087 81.9609 47.7265 76.8977 47.7265 70.6707C47.7265 64.4436 52.8087 59.3804 59.0536 59.3804C65.2985 59.3804 70.3807 64.4461 70.3807 70.6707C70.3807 76.8952 65.301 81.9609 59.0536 81.9609ZM61.7007 65.8736L58.9388 76.1442C58.7816 76.7261 58.2527 77.1116 57.6739 77.1116C57.5616 77.1116 57.4468 77.0966 57.3346 77.0668C56.636 76.8803 56.2218 76.1641 56.4089 75.4678L59.1708 65.1971C59.358 64.5008 60.0765 64.088 60.7751 64.2745C61.4737 64.461 61.8879 65.1772 61.7007 65.8736ZM55.2962 68.4027L52.5068 70.6707L55.2962 72.9387C55.8575 73.3937 55.9399 74.2169 55.4833 74.7764C55.2238 75.0923 54.8471 75.2564 54.4678 75.2564C54.1759 75.2564 53.884 75.1594 53.6395 74.9629L49.6077 71.6828C49.3033 71.4341 49.1261 71.0636 49.1261 70.6707C49.1261 70.2777 49.3033 69.9072 49.6077 69.6585L53.6395 66.3784C54.2009 65.9233 55.0242 66.0054 55.4833 66.5649C55.9399 67.1244 55.8575 67.9451 55.2962 68.4027ZM68.9835 70.6707C68.9835 71.0636 68.8064 71.4341 68.502 71.6828L64.4701 74.9629C64.2256 75.1619 63.9337 75.2564 63.6418 75.2564C63.2626 75.2564 62.8858 75.0923 62.6264 74.7764C62.1698 74.2169 62.2521 73.3962 62.8135 72.9387L65.6028 70.6707L62.8135 68.4027C62.2521 67.9451 62.1698 67.1244 62.6264 66.5649C63.0829 66.0054 63.9088 65.9233 64.4701 66.3784L68.502 69.6585C68.8064 69.9072 68.9835 70.2777 68.9835 70.6707Z" fill="white"/>
</g>
<defs>
<clipPath id="clip0_1755_1366">
<rect width="73" height="94" fill="white"/>
</clipPath>
</defs>
</svg>
