<svg width="196" height="36" viewBox="0 0 196 36" fill="none" xmlns="http://www.w3.org/2000/svg">
<path d="M60.652 3.636V4.524H57.016V7.344H59.968V8.232H57.016V12H55.924V3.636H60.652ZM62.7029 4.524V7.32H65.7509V8.22H62.7029V11.1H66.1109V12H61.6109V3.624H66.1109V4.524H62.7029ZM77.9152 3.636L75.4912 12H74.2672L72.3232 5.268L70.3072 12L69.0952 12.012L66.7552 3.636H67.9192L69.7432 10.728L71.7592 3.636H72.9832L74.9032 10.704L76.7392 3.636H77.9152ZM79.8423 4.524V7.32H82.8903V8.22H79.8423V11.1H83.2503V12H78.7503V3.624H83.2503V4.524H79.8423ZM88.9466 12L86.9546 8.58H85.6346V12H84.5426V3.636H87.2426C87.8746 3.636 88.4066 3.744 88.8386 3.96C89.2786 4.176 89.6066 4.468 89.8226 4.836C90.0386 5.204 90.1466 5.624 90.1466 6.096C90.1466 6.672 89.9786 7.18 89.6426 7.62C89.3146 8.06 88.8186 8.352 88.1546 8.496L90.2546 12H88.9466ZM85.6346 7.704H87.2426C87.8346 7.704 88.2786 7.56 88.5746 7.272C88.8706 6.976 89.0186 6.584 89.0186 6.096C89.0186 5.6 88.8706 5.216 88.5746 4.944C88.2866 4.672 87.8426 4.536 87.2426 4.536H85.6346V7.704ZM104.835 3.636L102.411 12H101.187L99.2426 5.268L97.2266 12L96.0146 12.012L93.6746 3.636H94.8386L96.6626 10.728L98.6786 3.636H99.9026L101.823 10.704L103.659 3.636H104.835ZM110.614 10.14H106.966L106.294 12H105.142L108.166 3.684H109.426L112.438 12H111.286L110.614 10.14ZM110.302 9.252L108.79 5.028L107.278 9.252H110.302ZM116.048 12.084C115.496 12.084 115 11.988 114.56 11.796C114.128 11.596 113.788 11.324 113.54 10.98C113.292 10.628 113.164 10.224 113.156 9.768H114.32C114.36 10.16 114.52 10.492 114.8 10.764C115.088 11.028 115.504 11.16 116.048 11.16C116.568 11.16 116.976 11.032 117.272 10.776C117.576 10.512 117.728 10.176 117.728 9.768C117.728 9.448 117.64 9.188 117.464 8.988C117.288 8.788 117.068 8.636 116.804 8.532C116.54 8.428 116.184 8.316 115.736 8.196C115.184 8.052 114.74 7.908 114.404 7.764C114.076 7.62 113.792 7.396 113.552 7.092C113.32 6.78 113.204 6.364 113.204 5.844C113.204 5.388 113.32 4.984 113.552 4.632C113.784 4.28 114.108 4.008 114.524 3.816C114.948 3.624 115.432 3.528 115.976 3.528C116.76 3.528 117.4 3.724 117.896 4.116C118.4 4.508 118.684 5.028 118.748 5.676H117.548C117.508 5.356 117.34 5.076 117.044 4.836C116.748 4.588 116.356 4.464 115.868 4.464C115.412 4.464 115.04 4.584 114.752 4.824C114.464 5.056 114.32 5.384 114.32 5.808C114.32 6.112 114.404 6.36 114.572 6.552C114.748 6.744 114.96 6.892 115.208 6.996C115.464 7.092 115.82 7.204 116.276 7.332C116.828 7.484 117.272 7.636 117.608 7.788C117.944 7.932 118.232 8.16 118.472 8.472C118.712 8.776 118.832 9.192 118.832 9.72C118.832 10.128 118.724 10.512 118.508 10.872C118.292 11.232 117.972 11.524 117.548 11.748C117.124 11.972 116.624 12.084 116.048 12.084ZM125.227 3.636V4.524H122.947V12H121.855V4.524H119.563V3.636H125.227ZM127.303 4.524V7.32H130.351V8.22H127.303V11.1H130.711V12H126.211V3.624H130.711V4.524H127.303ZM134.607 3.636C135.519 3.636 136.307 3.808 136.971 4.152C137.643 4.488 138.155 4.972 138.507 5.604C138.867 6.236 139.047 6.98 139.047 7.836C139.047 8.692 138.867 9.436 138.507 10.068C138.155 10.692 137.643 11.172 136.971 11.508C136.307 11.836 135.519 12 134.607 12H132.003V3.636H134.607ZM134.607 11.1C135.687 11.1 136.511 10.816 137.079 10.248C137.647 9.672 137.931 8.868 137.931 7.836C137.931 6.796 137.643 5.984 137.067 5.4C136.499 4.816 135.679 4.524 134.607 4.524H133.095V11.1H134.607Z" fill="#71717A"/>
<path d="M48.2 32L47.15 29.914H41.284L40.234 32H37.462L42.516 22.2H45.918L50.986 32H48.2ZM42.222 28.038H46.212L44.224 24.062L42.222 28.038ZM58.7003 22.2C61.2343 22.2 63.4603 23.768 63.4603 27.1C63.4603 30.432 61.2343 32 58.7003 32H51.5883V22.2H58.7003ZM57.7483 29.886C59.6523 29.886 60.9403 29.48 60.9403 27.1C60.9403 24.72 59.6523 24.314 57.7483 24.314H54.1083V29.886H57.7483ZM78.0324 22.2C80.5664 22.2 82.7924 23.768 82.7924 27.1C82.7924 30.432 80.5664 32 78.0324 32H70.9204V22.2H78.0324ZM77.0804 29.886C78.9844 29.886 80.2724 29.48 80.2724 27.1C80.2724 24.72 78.9844 24.314 77.0804 24.314H73.4404V29.886H77.0804ZM89.7236 32.14C85.4116 32.14 83.5636 30.348 83.5636 27.086C83.5636 23.838 85.4116 22.06 89.7236 22.06C94.0216 22.06 95.8836 23.852 95.8836 27.086C95.8836 30.334 94.0216 32.14 89.7236 32.14ZM89.7236 30.026C92.3416 30.026 93.3636 29.088 93.3636 27.086C93.3636 25.098 92.3556 24.174 89.7236 24.174C87.0916 24.174 86.0836 25.084 86.0836 27.086C86.0836 29.102 87.1056 30.026 89.7236 30.026ZM99.3212 29.886H106.881V32H96.8012V22.2H99.3212V29.886ZM110.382 29.886H117.942V32H107.862V22.2H110.382V29.886ZM129.37 32L128.32 29.914H122.454L121.404 32H118.632L123.686 22.2H127.088L132.156 32H129.37ZM123.392 28.038H127.382L125.394 24.062L123.392 28.038ZM144.21 25.798C144.21 27.394 143.398 28.57 142.082 29.088L143.888 32H140.92L139.338 29.382H135.278V32H132.758V22.2H140.458C142.684 22.2 144.21 23.614 144.21 25.798ZM135.278 24.314V27.268H139.758C140.514 27.268 141.69 27.268 141.69 25.798C141.69 24.314 140.514 24.314 139.758 24.314H135.278ZM144.745 28.626H147.265C147.265 29.662 148.105 30.138 151.297 30.138C153.943 30.138 154.741 29.844 154.741 29.074C154.741 28.262 154.181 28.122 151.003 27.968C146.733 27.772 145.039 27.1 145.039 24.902C145.039 22.746 147.237 22.06 150.905 22.06C154.601 22.06 156.841 22.984 156.841 25.406H154.321C154.321 24.328 153.243 24.062 150.625 24.062C148.147 24.062 147.559 24.3 147.559 25.028C147.559 25.784 148.147 25.924 151.003 26.092C154.867 26.302 157.261 26.512 157.261 28.99C157.261 31.608 154.783 32.14 151.157 32.14C147.139 32.14 144.745 31.454 144.745 28.626Z" fill="#FAFAFA"/>
</svg>
