<svg width="196" height="36" viewBox="0 0 196 36" fill="none" xmlns="http://www.w3.org/2000/svg">
<path d="M69.516 3.636V12H68.424V3.636H69.516ZM77.5931 12H76.5011L72.1091 5.34V12H71.0171V3.624H72.1091L76.5011 10.272V3.624H77.5931V12ZM78.6866 7.812C78.6866 6.996 78.8706 6.264 79.2386 5.616C79.6066 4.96 80.1066 4.448 80.7386 4.08C81.3786 3.712 82.0866 3.528 82.8626 3.528C83.7746 3.528 84.5706 3.748 85.2506 4.188C85.9306 4.628 86.4266 5.252 86.7386 6.06H85.4306C85.1986 5.556 84.8626 5.168 84.4226 4.896C83.9906 4.624 83.4706 4.488 82.8626 4.488C82.2786 4.488 81.7546 4.624 81.2906 4.896C80.8266 5.168 80.4626 5.556 80.1986 6.06C79.9346 6.556 79.8026 7.14 79.8026 7.812C79.8026 8.476 79.9346 9.06 80.1986 9.564C80.4626 10.06 80.8266 10.444 81.2906 10.716C81.7546 10.988 82.2786 11.124 82.8626 11.124C83.4706 11.124 83.9906 10.992 84.4226 10.728C84.8626 10.456 85.1986 10.068 85.4306 9.564H86.7386C86.4266 10.364 85.9306 10.984 85.2506 11.424C84.5706 11.856 83.7746 12.072 82.8626 12.072C82.0866 12.072 81.3786 11.892 80.7386 11.532C80.1066 11.164 79.6066 10.656 79.2386 10.008C78.8706 9.36 78.6866 8.628 78.6866 7.812ZM92.4082 12L90.4162 8.58H89.0962V12H88.0042V3.636H90.7042C91.3362 3.636 91.8682 3.744 92.3002 3.96C92.7402 4.176 93.0682 4.468 93.2842 4.836C93.5002 5.204 93.6082 5.624 93.6082 6.096C93.6082 6.672 93.4402 7.18 93.1042 7.62C92.7762 8.06 92.2802 8.352 91.6162 8.496L93.7162 12H92.4082ZM89.0962 7.704H90.7042C91.2962 7.704 91.7402 7.56 92.0362 7.272C92.3322 6.976 92.4802 6.584 92.4802 6.096C92.4802 5.6 92.3322 5.216 92.0362 4.944C91.7482 4.672 91.3042 4.536 90.7042 4.536H89.0962V7.704ZM96.0369 4.524V7.32H99.0849V8.22H96.0369V11.1H99.4449V12H94.9449V3.624H99.4449V4.524H96.0369ZM105.681 10.14H102.033L101.361 12H100.209L103.233 3.684H104.493L107.505 12H106.353L105.681 10.14ZM105.369 9.252L103.857 5.028L102.345 9.252H105.369ZM111.115 12.084C110.563 12.084 110.067 11.988 109.627 11.796C109.195 11.596 108.855 11.324 108.607 10.98C108.359 10.628 108.231 10.224 108.223 9.768H109.387C109.427 10.16 109.587 10.492 109.867 10.764C110.155 11.028 110.571 11.16 111.115 11.16C111.635 11.16 112.043 11.032 112.339 10.776C112.643 10.512 112.795 10.176 112.795 9.768C112.795 9.448 112.707 9.188 112.531 8.988C112.355 8.788 112.135 8.636 111.871 8.532C111.607 8.428 111.251 8.316 110.803 8.196C110.251 8.052 109.807 7.908 109.471 7.764C109.143 7.62 108.859 7.396 108.619 7.092C108.387 6.78 108.271 6.364 108.271 5.844C108.271 5.388 108.387 4.984 108.619 4.632C108.851 4.28 109.175 4.008 109.591 3.816C110.015 3.624 110.499 3.528 111.043 3.528C111.827 3.528 112.467 3.724 112.963 4.116C113.467 4.508 113.751 5.028 113.815 5.676H112.615C112.575 5.356 112.407 5.076 112.111 4.836C111.815 4.588 111.423 4.464 110.935 4.464C110.479 4.464 110.107 4.584 109.819 4.824C109.531 5.056 109.387 5.384 109.387 5.808C109.387 6.112 109.471 6.36 109.639 6.552C109.815 6.744 110.027 6.892 110.275 6.996C110.531 7.092 110.887 7.204 111.343 7.332C111.895 7.484 112.339 7.636 112.675 7.788C113.011 7.932 113.299 8.16 113.539 8.472C113.779 8.776 113.899 9.192 113.899 9.72C113.899 10.128 113.791 10.512 113.575 10.872C113.359 11.232 113.039 11.524 112.615 11.748C112.191 11.972 111.691 12.084 111.115 12.084ZM116.238 4.524V7.32H119.286V8.22H116.238V11.1H119.646V12H115.146V3.624H119.646V4.524H116.238ZM123.543 3.636C124.455 3.636 125.243 3.808 125.907 4.152C126.579 4.488 127.091 4.972 127.443 5.604C127.803 6.236 127.983 6.98 127.983 7.836C127.983 8.692 127.803 9.436 127.443 10.068C127.091 10.692 126.579 11.172 125.907 11.508C125.243 11.836 124.455 12 123.543 12H120.939V3.636H123.543ZM123.543 11.1C124.623 11.1 125.447 10.816 126.015 10.248C126.583 9.672 126.867 8.868 126.867 7.836C126.867 6.796 126.579 5.984 126.003 5.4C125.435 4.816 124.615 4.524 123.543 4.524H122.031V11.1H123.543Z" fill="#71717A"/>
<path d="M62.658 22.2H65.486L60.446 32H57.002L51.962 22.2H54.79L58.724 30.138L62.658 22.2ZM68.6083 22.2V32H66.0883V22.2H68.6083ZM69.4347 28.626H71.9547C71.9547 29.662 72.7947 30.138 75.9867 30.138C78.6327 30.138 79.4307 29.844 79.4307 29.074C79.4307 28.262 78.8707 28.122 75.6927 27.968C71.4227 27.772 69.7287 27.1 69.7287 24.902C69.7287 22.746 71.9267 22.06 75.5947 22.06C79.2907 22.06 81.5307 22.984 81.5307 25.406H79.0107C79.0107 24.328 77.9327 24.062 75.3147 24.062C72.8367 24.062 72.2487 24.3 72.2487 25.028C72.2487 25.784 72.8367 25.924 75.6927 26.092C79.5567 26.302 81.9507 26.512 81.9507 28.99C81.9507 31.608 79.4727 32.14 75.8467 32.14C71.8287 32.14 69.4347 31.454 69.4347 28.626ZM85.3837 22.2V32H82.8637V22.2H85.3837ZM97.2664 26.68C98.1064 27.198 98.6524 28.01 98.6524 29.144C98.6524 30.796 97.6864 32 95.4604 32H86.5004V22.2H95.1244C97.3504 22.2 98.0364 23.334 98.0364 24.776C98.0364 25.462 97.7564 26.134 97.2664 26.68ZM89.0204 24.02V26.05H94.2144H94.2284C94.9004 26.05 95.5164 26.05 95.5164 25.028C95.5164 24.02 94.9004 24.02 94.2144 24.02H89.0204ZM94.8444 30.054C95.5164 30.054 96.1324 30.054 96.1324 29.018C96.1324 27.982 95.5164 27.982 94.8444 27.982H89.0204V30.054H94.8444ZM102.009 22.2V32H99.4887V22.2H102.009ZM105.645 29.886H113.205V32H103.125V22.2H105.645V29.886ZM116.706 22.2V32H114.186V22.2H116.706ZM129.572 22.2V24.314H124.812V32H122.292V24.314H117.532V22.2H129.572ZM135.627 28.78L130.083 22.2H133.121L136.887 26.666L140.653 22.2H143.691L138.147 28.78V32H135.627V28.78Z" fill="#FAFAFA"/>
</svg>
