<svg width="91" height="75" viewBox="0 0 91 75" fill="none" xmlns="http://www.w3.org/2000/svg">
<mask id="mask0_1747_9343" style="mask-type:luminance" maskUnits="userSpaceOnUse" x="0" y="0" width="91" height="75">
<path d="M90.9705 0H0V75H90.9705V0Z" fill="white"/>
</mask>
<g mask="url(#mask0_1747_9343)">
<path d="M87.5341 17.0352L50.608 1.12959C47.36 -0.268675 43.6354 -0.266394 40.3852 1.13187L3.46814 17.0352C1.33006 17.9567 0 19.98 0 22.318C0 24.6561 1.32779 26.6793 3.46587 27.6009L7.83054 29.4804C7.826 29.526 7.82374 29.5717 7.82374 29.6196V50.3723C6.13733 50.9448 4.91849 52.5507 4.91849 54.4371C4.91849 55.5297 5.32931 56.5288 6.00115 57.2884C5.25668 58.0206 4.76415 59.0151 4.66201 60.1419L3.61567 71.6999C3.54304 72.4891 3.8086 73.2783 4.33971 73.8623C4.87083 74.4485 5.62891 74.7838 6.41878 74.7838H11.9524C12.7422 74.7838 13.498 74.4485 14.0314 73.8623C14.5625 73.276 14.8281 72.4891 14.7555 71.6999L13.7091 60.1419C13.607 59.0151 13.1145 58.0228 12.3677 57.2884C13.0396 56.5311 13.4504 55.532 13.4504 54.4371C13.4504 52.5507 12.2315 50.9471 10.5451 50.3723V30.6506L17.9966 33.86C17.9921 33.9056 17.9898 33.9512 17.9898 33.9968V44.4462C17.9898 48.8075 20.9609 52.8426 26.356 55.8057C31.4901 58.6273 38.288 60.183 45.4989 60.183C52.7098 60.183 59.5053 58.6273 64.6417 55.8057C70.0368 52.8404 73.0079 48.8075 73.0079 44.4462V33.9968C73.0079 33.9512 73.0056 33.9033 73.0011 33.86L87.5319 27.6009C89.6699 26.6793 91 24.6538 91 22.3157C91 19.9777 89.6722 17.9544 87.5341 17.0352ZM12.0182 72.0146C11.9909 72.0443 11.9614 72.0443 11.9501 72.0443H6.41651C6.40516 72.0443 6.37565 72.0443 6.34841 72.0146C6.32118 71.985 6.32345 71.9553 6.32572 71.9462L7.37206 60.3883C7.45831 59.4394 8.23682 58.7254 9.1833 58.7254C10.1298 58.7254 10.9106 59.4416 10.9945 60.3883L12.0409 71.9462C12.0409 71.9462 12.0431 71.9873 12.0182 72.0146ZM9.1833 55.9859C8.33215 55.9859 7.63989 55.2902 7.63989 54.4348C7.63989 53.5794 8.33215 52.8837 9.1833 52.8837C10.0344 52.8837 10.7267 53.5794 10.7267 54.4348C10.7267 55.2902 10.0344 55.9859 9.1833 55.9859ZM70.2842 38.6068C70.2842 42.1469 67.3858 45.6004 62.3334 48.0867C61.657 48.4197 61.3778 49.2386 61.7092 49.9184C61.9453 50.4042 62.431 50.6848 62.9326 50.6848C63.1346 50.6848 63.3389 50.6392 63.5295 50.5457C66.3326 49.1679 68.5797 47.4868 70.1798 45.6209C69.6692 48.5064 67.2859 51.2368 63.3344 53.4061C58.5929 56.011 52.2581 57.4457 45.4989 57.4457C38.7396 57.4457 32.4048 56.011 27.6634 53.4061C23.7277 51.2436 21.3445 48.527 20.8224 45.6506C22.1979 47.245 24.0568 48.7049 26.356 49.9686C31.4901 52.7902 38.2902 54.3436 45.4989 54.3436C47.5144 54.3436 49.5276 54.2204 51.4773 53.9763C52.2241 53.8828 52.7529 53.1985 52.6621 52.4503C52.5691 51.6999 51.8904 51.1684 51.1437 51.2596C49.3052 51.49 47.4054 51.6063 45.5011 51.6063C38.7419 51.6063 32.4071 50.1716 27.6657 47.5666C23.183 45.1031 20.7158 41.9234 20.7158 38.6091V35.0324L40.3943 43.5087C42.0148 44.2067 43.758 44.5557 45.5011 44.5557C47.2443 44.5557 48.992 44.2044 50.6171 43.5041L70.2888 35.0324V38.6091L70.2842 38.6068ZM86.4606 25.0849L49.5412 40.9859C46.9719 42.0922 44.0281 42.0922 41.4656 40.9882L13.2506 28.8349L39.1028 24.3162C40.2649 25.6985 42.6345 26.604 45.5011 26.604C49.5889 26.604 52.6735 24.761 52.6735 22.3157C52.6735 19.8705 49.5889 18.0274 45.5011 18.0274C41.7879 18.0274 38.9031 19.5488 38.406 21.6588L8.95179 26.8071C8.86554 26.823 8.78156 26.8458 8.70439 26.8755L4.53945 25.0826C3.40231 24.5922 2.72367 23.5589 2.72367 22.318C2.72367 21.0771 3.40231 20.0393 4.53945 19.5488L41.4588 3.64784C42.7434 3.09355 44.1234 2.81755 45.5011 2.81755C46.8789 2.81755 48.2543 3.09355 49.5344 3.64328L86.4606 19.5488C87.5954 20.0393 88.2741 21.0726 88.2741 22.3134C88.2741 23.5543 87.5954 24.5922 86.4583 25.0826L86.4606 25.0849ZM41.0502 22.318C41.0502 21.9188 42.58 20.7669 45.4989 20.7669C48.4177 20.7669 49.9475 21.9188 49.9475 22.318C49.9475 22.7172 48.4177 23.8691 45.4989 23.8691C42.58 23.8691 41.0502 22.7149 41.0502 22.318Z" fill="white"/>
</g>
</svg>
