<svg width="94" height="91" viewBox="0 0 94 91" fill="none" xmlns="http://www.w3.org/2000/svg">
<g clip-path="url(#clip0_1747_9526)">
<path d="M7.6301 54.7626C6.88933 54.7626 6.28906 54.1669 6.28906 53.4318V47.6677C6.28906 46.9326 6.88933 46.3369 7.6301 46.3369C8.37086 46.3369 8.97113 46.9326 8.97113 47.6677V53.4318C8.97113 54.1669 8.37086 54.7626 7.6301 54.7626ZM13.5332 53.551C12.7924 53.551 12.1922 52.9553 12.1922 52.2202V46.3698C12.1922 45.6347 12.7924 45.0391 13.5332 45.0391C14.274 45.0391 14.8742 45.6347 14.8742 46.3698V52.2202C14.8742 52.9553 14.274 53.551 13.5332 53.551Z" fill="white"/>
<path d="M10.5832 57.5453C9.84246 57.5453 9.24219 56.9497 9.24219 56.2146V52.823C9.24219 52.0879 9.84246 51.4922 10.5832 51.4922C11.324 51.4922 11.9243 52.0879 11.9243 52.823V56.2146C11.9243 56.9497 11.324 57.5453 10.5832 57.5453Z" fill="white"/>
<path d="M4.0382 55.4543C3.25146 55.4543 2.48004 55.1958 1.8057 54.7015C0.835043 53.9867 0.191348 52.846 0.0815109 51.6496C0.0764022 51.5811 0.0738479 51.5152 0.0789565 51.4493C0.257761 48.5343 2.14542 47.5153 3.69591 47.1756L18.6721 43.8778L21.2009 36.0325C21.4256 35.3329 22.1817 34.9476 22.8867 35.1707C23.5917 35.3963 23.9825 36.1441 23.7552 36.8437L20.9914 45.4164C20.8458 45.8676 20.4703 46.2073 20.0054 46.3112L4.2783 49.7738C3.26167 49.9994 2.85553 50.4557 2.76613 51.5C2.82999 51.9157 3.0701 52.3188 3.40727 52.5646C3.59118 52.7015 3.88238 52.846 4.22977 52.775L21.9212 49.1401C21.9927 49.1274 22.0642 49.1173 22.1358 49.1147C23.1779 48.6788 26.0439 44.8791 26.9941 43.6193L27.3517 43.1478C27.7962 42.5597 28.6391 42.4431 29.2292 42.8842C29.8218 43.3252 29.9393 44.1617 29.4948 44.7473L29.1423 45.2137C25.883 49.5355 23.98 51.6775 22.3401 51.7712L4.77385 55.3808C4.53118 55.4315 4.28597 55.4543 4.0433 55.4543H4.0382Z" fill="white"/>
<path d="M29.1522 69.6121C28.7511 69.6121 28.3475 69.5538 27.9516 69.4347C27.8878 69.4144 27.8239 69.3916 27.7626 69.3611C25.5761 68.3345 24.6412 66.5602 25.1265 64.3675L29.2365 45.833L23.8595 41.577C20.991 39.3311 20.4112 37.5796 21.6424 34.8901L27.2466 22.6723L26.8251 22.4493L16.1607 24.6596C12.4135 25.4378 10.3113 23.8028 9.89237 21.8384C9.46069 19.8156 10.7838 17.3467 13.7392 16.718L25.1367 14.2922C25.5837 14.1959 25.9439 14.1122 26.2606 14.0362C28.0589 13.6078 28.534 13.6103 30.4651 14.5862C33.1191 15.9246 36.805 17.775 39.1805 18.9563C39.2061 18.9689 39.2291 18.9816 39.2546 18.9968L39.5126 19.1464C40.9175 19.9499 41.0707 20.1882 41.8396 21.8079L41.9392 22.0183C41.952 22.0437 41.9622 22.069 41.9724 22.0944C42.6544 23.8028 43.6992 26.2946 44.1487 27.3643L49.0761 29.0778C51.1451 29.6532 52.5602 30.9789 52.9587 32.7178C53.2856 34.15 52.8284 35.6075 51.7607 36.5251C50.5934 37.5289 48.9279 37.7241 47.1884 37.0599L38.5445 33.7698C38.2022 33.6379 37.9289 33.3769 37.7884 33.0397L36.547 30.0867L33.0654 37.425L37.0936 40.8926C38.8842 42.4338 39.8779 43.8786 39.3057 46.3171C39.3006 46.345 39.2929 46.3703 39.2827 46.3982L33.1599 66.6514C32.8406 67.7084 32.1229 68.5804 31.1369 69.1051C30.5162 69.4372 29.8418 69.6045 29.1573 69.6045L29.1522 69.6121ZM28.8099 66.91C29.1624 66.9911 29.5328 66.9429 29.8572 66.7706C30.2097 66.5804 30.4676 66.2687 30.5826 65.8935L36.6951 45.6834C36.9123 44.7354 36.8331 44.2056 35.3286 42.9103L30.5315 38.7811C30.0794 38.3907 29.9415 37.7494 30.1969 37.2095L35.4001 26.2489C35.6274 25.7724 36.1128 25.4708 36.6441 25.486C37.1754 25.4986 37.6479 25.818 37.8523 26.3047L40.0362 31.4986L48.1463 34.586C48.9432 34.8901 49.6023 34.8673 50.0007 34.5226C50.32 34.2488 50.4478 33.7875 50.3405 33.316C50.1642 32.5505 49.4286 31.9396 48.32 31.6405C48.2893 31.6304 48.2587 31.6228 48.228 31.6126L42.6953 29.6887C42.33 29.562 42.0388 29.2857 41.8958 28.9308C41.8856 28.9054 41.8396 28.7964 41.7655 28.6215C41.3849 27.7191 40.238 24.9866 39.4947 23.1235L39.413 22.9486C39.1575 22.4112 38.9762 22.0234 38.8689 21.8992C38.7948 21.8155 38.5496 21.6736 38.1741 21.4607L37.9442 21.3289C35.5636 20.1451 31.8955 18.3023 29.2492 16.969C28.6234 16.6521 28.2173 16.4645 27.9976 16.4392C27.8162 16.4164 27.5097 16.4874 26.8865 16.6344C26.5723 16.7104 26.1789 16.8017 25.7012 16.9056L14.3037 19.3314C12.8631 19.6381 12.388 20.6876 12.5157 21.301C12.6894 22.107 13.9334 22.4163 15.6141 22.0665L26.7536 19.7573C27.0601 19.6939 27.382 19.7395 27.6604 19.8865L29.6196 20.9258C30.2454 21.2554 30.5009 22.0133 30.2097 22.6495L24.0843 36.0055C23.5198 37.2374 23.2848 37.7469 25.5275 39.5035L31.5609 44.2816C31.9594 44.5985 32.1433 45.1131 32.0335 45.6074L27.7447 64.9506C27.5685 65.7465 27.6885 66.3574 28.8099 66.9176V66.91Z" fill="white"/>
<path d="M39.9862 17.1653C39.0308 17.1653 38.0602 16.9626 37.1406 16.5291C35.5314 15.7712 34.313 14.4379 33.7152 12.7725C33.1175 11.1071 33.2069 9.30994 33.9707 7.713C34.7344 6.11607 36.078 4.90949 37.7562 4.31381C39.4344 3.72066 41.2455 3.80938 42.8547 4.56729C46.1779 6.12874 47.6007 10.0856 46.0272 13.3834C44.888 15.7687 42.4869 17.1679 39.9887 17.1679L39.9862 17.1653ZM39.9989 6.58754C39.5468 6.58754 39.0921 6.66359 38.6553 6.82075C37.6515 7.17562 36.8494 7.89804 36.3922 8.85367C35.935 9.8093 35.8813 10.8841 36.2415 11.8802C36.5991 12.8764 37.3271 13.6749 38.2901 14.1261C40.2774 15.0614 42.6606 14.2173 43.6031 12.2453C44.5457 10.2732 43.6951 7.90818 41.7078 6.97283C41.1663 6.71935 40.5839 6.59008 40.0015 6.59008L39.9989 6.58754Z" fill="white"/>
<mask id="mask0_1747_9526" style="mask-type:luminance" maskUnits="userSpaceOnUse" x="0" y="0" width="94" height="91">
<path d="M94 0H0V91H94V0Z" fill="white"/>
</mask>
<g mask="url(#mask0_1747_9526)">
<path d="M10.5826 90.7996C5.00392 90.7996 0.464844 86.2952 0.464844 80.7592C0.464844 75.2231 5.00392 70.7188 10.5826 70.7188C16.1613 70.7188 20.7004 75.2231 20.7004 80.7592C20.7004 86.2952 16.1613 90.7996 10.5826 90.7996ZM10.5826 73.3778C6.48289 73.3778 3.14691 76.6883 3.14691 80.7566C3.14691 84.825 6.48289 88.1355 10.5826 88.1355C14.6823 88.1355 18.0183 84.825 18.0183 80.7566C18.0183 76.6883 14.6823 73.3778 10.5826 73.3778Z" fill="white"/>
<path d="M25.0153 77.3112C24.4738 77.3112 23.9655 76.9842 23.7612 76.4544C23.4955 75.7674 23.8429 74.9994 24.5351 74.7358L92.1513 49.1341C92.8409 48.873 93.6175 49.2178 93.8806 49.9047C94.1437 50.5916 93.7988 51.3597 93.1066 51.6233L25.493 77.225C25.3346 77.2833 25.1737 77.3137 25.0153 77.3137V77.3112Z" fill="white"/>
</g>
<path d="M10.5832 65.6828C9.84246 65.6828 9.24219 65.0871 9.24219 64.352V60.9402C9.24219 60.2051 9.84246 59.6094 10.5832 59.6094C11.324 59.6094 11.9243 60.2051 11.9243 60.9402V64.352C11.9243 65.0871 11.324 65.6828 10.5832 65.6828Z" fill="white"/>
<path d="M10.5832 73.3773C9.84246 73.3773 9.24219 72.7816 9.24219 72.0465V69.0808C9.24219 68.3457 9.84246 67.75 10.5832 67.75C11.324 67.75 11.9243 68.3457 11.9243 69.0808V72.0465C11.9243 72.7816 11.324 73.3773 10.5832 73.3773Z" fill="white"/>
<path d="M68.6451 41.2914C68.5812 41.2914 68.5199 41.2889 68.456 41.2788C60.3204 40.1381 53.8017 33.7047 52.6038 25.6415C52.4939 24.914 53.0022 24.2372 53.7328 24.1307C54.4633 24.0217 55.1479 24.5261 55.2552 25.2536C56.282 32.161 61.8633 37.6666 68.829 38.6451C69.5621 38.749 70.0729 39.4207 69.9682 40.1482C69.8737 40.8123 69.299 41.2914 68.6425 41.2914H68.6451ZM73.6465 41.2762C72.9926 41.2762 72.4204 40.7997 72.3208 40.1381C72.2135 39.4106 72.7192 38.7363 73.4523 38.6273C80.4129 37.6083 85.961 32.0672 86.947 25.1548C87.0517 24.4273 87.726 23.9203 88.4617 24.0242C89.1948 24.1282 89.7057 24.7999 89.6009 25.5274C88.4515 33.6008 81.9711 40.0696 73.8432 41.2585C73.7767 41.2686 73.7103 41.2737 73.6465 41.2737V41.2762ZM53.9141 21.8088C53.8503 21.8088 53.789 21.8037 53.7251 21.7961C52.992 21.6922 52.4811 21.0205 52.5833 20.293C53.7328 12.2196 60.2132 5.75073 68.3411 4.55936C69.0716 4.45037 69.7562 4.9548 69.8635 5.68229C69.9708 6.40978 69.465 7.08658 68.7319 7.19304C61.7713 8.21204 56.2233 13.7532 55.2398 20.6631C55.1453 21.3272 54.5706 21.8088 53.9141 21.8088ZM88.2599 21.7074C87.606 21.7074 87.0338 21.2309 86.9342 20.5718C85.9073 13.6644 80.3235 8.15881 73.3578 7.1829C72.6247 7.07897 72.1139 6.40725 72.2186 5.67975C72.3208 4.95226 72.9977 4.44276 73.7333 4.54923C81.8689 5.68989 88.3876 12.1207 89.5882 20.1865C89.6954 20.914 89.1897 21.5908 88.4566 21.6973C88.3902 21.7074 88.3238 21.7125 88.2599 21.7125V21.7074Z" fill="white"/>
<path d="M68.643 34.555C68.5434 34.555 68.4387 34.5423 68.3365 34.5195C63.989 33.5056 60.4921 30.0709 59.4269 25.7642C59.2507 25.0494 59.69 24.3295 60.4104 24.1546C61.1281 23.9797 61.8561 24.4157 62.0324 25.1305C62.86 28.4714 65.5753 31.1406 68.9521 31.9289C69.6724 32.0962 70.1194 32.8136 69.9509 33.5284C69.8053 34.1418 69.2535 34.555 68.6456 34.555H68.643ZM73.6495 34.5296C73.0467 34.5296 72.4975 34.1215 72.3494 33.5157C72.1731 32.8009 72.6125 32.081 73.3303 31.9061C76.6994 31.0848 79.3866 28.3903 80.181 25.0393C80.3496 24.3244 81.0699 23.8809 81.7928 24.0482C82.5131 24.2155 82.9601 24.9328 82.7916 25.6476C81.7698 29.9619 78.3061 33.4321 73.9688 34.4891C73.8616 34.5144 73.7543 34.5271 73.6495 34.5271V34.5296ZM60.7067 21.8099C60.6045 21.8099 60.5023 21.7998 60.3976 21.7744C59.6773 21.6071 59.2303 20.8898 59.3988 20.1749C60.4206 15.8607 63.8817 12.3905 68.2216 11.3335C68.9393 11.1586 69.6673 11.5946 69.8436 12.3094C70.0198 13.0217 69.5805 13.7441 68.8601 13.919C65.4935 14.7403 62.8038 17.4348 62.0094 20.7858C61.8638 21.3993 61.312 21.8124 60.7041 21.8124L60.7067 21.8099ZM81.4607 21.7085C80.8579 21.7085 80.3087 21.3029 80.1606 20.6946C79.333 17.3512 76.6177 14.6845 73.2409 13.8962C72.5205 13.7289 72.071 13.0116 72.2421 12.2967C72.4107 11.5819 73.131 11.1358 73.8539 11.3056C78.2014 12.3195 81.6983 15.7542 82.7635 20.0583C82.9397 20.7732 82.5004 21.4931 81.78 21.668C81.6728 21.6958 81.5655 21.706 81.4607 21.706V21.7085Z" fill="white"/>
<path d="M71.0949 28.6484C67.9071 28.6484 65.3145 26.0755 65.3145 22.9121C65.3145 19.7486 67.9071 17.1758 71.0949 17.1758C74.2828 17.1758 76.8754 19.7486 76.8754 22.9121C76.8754 26.0755 74.2828 28.6484 71.0949 28.6484ZM71.0949 19.8373C69.3861 19.8373 67.9965 21.2163 67.9965 22.9121C67.9965 24.6079 69.3861 25.9868 71.0949 25.9868C72.8038 25.9868 74.1934 24.6079 74.1934 22.9121C74.1934 21.2163 72.8038 19.8373 71.0949 19.8373Z" fill="white"/>
<path d="M90.1267 26.6767H81.4751C79.355 26.6767 77.6309 24.9657 77.6309 22.8618C77.6309 20.7579 79.355 19.0469 81.4751 19.0469H90.1267C92.2468 19.0469 93.971 20.7579 93.971 22.8618C93.971 24.9657 92.2468 26.6767 90.1267 26.6767ZM81.4726 21.7084C80.8315 21.7084 80.3104 22.2255 80.3104 22.8618C80.3104 23.498 80.8315 24.0151 81.4726 24.0151H90.1242C90.7653 24.0151 91.2864 23.498 91.2864 22.8618C91.2864 22.2255 90.7653 21.7084 90.1242 21.7084H81.4726Z" fill="white"/>
<path d="M71.147 45.6117C69.0269 45.6117 67.3027 43.9007 67.3027 41.7968V33.2114C67.3027 31.1075 69.0269 29.3965 71.147 29.3965C73.2671 29.3965 74.9913 31.1075 74.9913 33.2114V41.7968C74.9913 43.9007 73.2671 45.6117 71.147 45.6117ZM71.147 32.058C70.5059 32.058 69.9848 32.5751 69.9848 33.2114V41.7968C69.9848 42.4331 70.5059 42.9502 71.147 42.9502C71.7882 42.9502 72.3092 42.4331 72.3092 41.7968V33.2114C72.3092 32.5751 71.7882 32.058 71.147 32.058Z" fill="white"/>
<path d="M60.7166 26.7782H52.065C49.9449 26.7782 48.2207 25.0672 48.2207 22.9633C48.2207 20.8594 49.9449 19.1484 52.065 19.1484H60.7166C62.8367 19.1484 64.5609 20.8594 64.5609 22.9633C64.5609 25.0672 62.8367 26.7782 60.7166 26.7782ZM52.0624 21.81C51.4213 21.81 50.9002 22.3271 50.9002 22.9633C50.9002 23.5996 51.4213 24.1167 52.0624 24.1167H60.714C61.3552 24.1167 61.8762 23.5996 61.8762 22.9633C61.8762 22.3271 61.3552 21.81 60.714 21.81H52.0624Z" fill="white"/>
<path d="M71.0416 16.4262C68.9214 16.4262 67.1973 14.7152 67.1973 12.6113V4.02584C67.1973 1.92194 68.9214 0.210938 71.0416 0.210938C73.1617 0.210938 74.8859 1.92194 74.8859 4.02584V12.6113C74.8859 14.7152 73.1617 16.4262 71.0416 16.4262ZM71.0416 2.8725C70.4004 2.8725 69.8793 3.3896 69.8793 4.02584V12.6113C69.8793 13.2475 70.4004 13.7646 71.0416 13.7646C71.6827 13.7646 72.2038 13.2475 72.2038 12.6113V4.02584C72.2038 3.3896 71.6827 2.8725 71.0416 2.8725Z" fill="white"/>
</g>
<defs>
<clipPath id="clip0_1747_9526">
<rect width="94" height="91" fill="white"/>
</clipPath>
</defs>
</svg>
