<svg width="88" height="88" viewBox="0 0 88 88" fill="none" xmlns="http://www.w3.org/2000/svg">
<g clip-path="url(#clip0_1747_9547)">
<path d="M86.5815 0H52.517C51.7316 0 51.0977 0.636344 51.0977 1.41935V46.8387C51.0977 47.6217 51.7316 48.2581 52.517 48.2581H86.5815C87.3669 48.2581 88.0009 47.6217 88.0009 46.8387V1.41935C88.0009 0.636344 87.3669 0 86.5815 0ZM85.1622 45.4194H53.9364V2.83871H85.1622V45.4194Z" fill="white"/>
<path d="M83.7414 52.5156H46.8381C44.4891 52.5156 42.5801 54.4247 42.5801 56.7737V83.7414C42.5801 86.0905 44.4891 87.9995 46.8381 87.9995H83.7414C86.0904 87.9995 87.9994 86.0905 87.9994 83.7414V56.7737C87.9994 54.4247 86.0904 52.5156 83.7414 52.5156ZM85.1607 83.7414C85.1607 84.5221 84.5244 85.1608 83.7414 85.1608H46.8381C46.0551 85.1608 45.4188 84.5221 45.4188 83.7414V56.7737C45.4188 55.993 46.0551 55.3543 46.8381 55.3543H83.7414C84.5244 55.3543 85.1607 55.993 85.1607 56.7737V83.7414Z" fill="white"/>
<path d="M79.4842 78.0639H76.6455C76.6455 77.2809 76.0115 76.6445 75.2261 76.6445C74.4408 76.6445 73.8068 77.2809 73.8068 78.0639H51.0971C49.2165 78.0639 49.2188 80.9026 51.0971 80.9026H73.8068C73.8068 81.6856 74.4408 82.322 75.2261 82.322C76.0115 82.322 76.6455 81.6856 76.6455 80.9026H79.4842C81.3648 80.9026 81.3625 78.0639 79.4842 78.0639Z" fill="white"/>
<path d="M45.4194 42.5804V8.51588C45.4194 6.16684 43.5103 4.25781 41.1613 4.25781H4.25806C1.90903 4.25781 0 6.16684 0 8.51588V42.5804C0 44.9294 1.90903 46.8385 4.25806 46.8385H41.1613C43.5103 46.8385 45.4194 44.9294 45.4194 42.5804ZM42.5806 42.5804C42.5806 43.361 41.9443 43.9997 41.1613 43.9997H4.25806C3.47505 43.9997 2.83871 43.361 2.83871 42.5804V8.51588C2.83871 7.73523 3.47505 7.09652 4.25806 7.09652H41.1613C41.9443 7.09652 42.5806 7.73523 42.5806 8.51588V42.5804Z" fill="white"/>
<path d="M28.3864 22.7103C31.5161 22.7103 34.0638 20.1626 34.0638 17.0329C34.0638 13.9032 31.5161 11.3555 28.3864 11.3555C25.2567 11.3555 22.709 13.9032 22.709 17.0329C22.709 20.1626 25.2567 22.7103 28.3864 22.7103ZM28.3864 14.1942C29.9524 14.1942 31.2251 15.4669 31.2251 17.0329C31.2251 18.5989 29.9524 19.8716 28.3864 19.8716C26.8204 19.8716 25.5477 18.5989 25.5477 17.0329C25.5477 15.4669 26.8204 14.1942 28.3864 14.1942Z" fill="white"/>
<path d="M33.6488 27.384C33.0929 26.8281 32.1964 26.8281 31.6428 27.384L26.9684 32.0584L18.0359 23.1259C17.48 22.57 16.5835 22.57 16.0299 23.1259L6.09444 33.0614C4.76498 34.3909 6.77573 36.3945 8.10046 35.0674L17.0329 26.135L25.9654 35.0674C26.5213 35.6233 27.4179 35.6233 27.9714 35.0674L32.6458 30.393L37.3202 35.0674C38.6284 36.3756 40.6723 34.4051 39.3263 33.0614L33.6488 27.384Z" fill="white"/>
<path d="M59.6127 9.93637H73.8063C75.6845 9.93637 75.6845 7.09766 73.8063 7.09766H59.6127C57.7321 7.09766 57.7344 9.93637 59.6127 9.93637Z" fill="white"/>
<path d="M59.6127 22.7098H79.4837C81.3643 22.7098 81.362 19.8711 79.4837 19.8711H59.6127C57.7321 19.8711 57.7344 22.7098 59.6127 22.7098Z" fill="white"/>
<path d="M59.6127 35.4832H79.4837C81.3643 35.4832 81.362 32.6445 79.4837 32.6445H59.6127C57.7321 32.6445 57.7344 35.4832 59.6127 35.4832Z" fill="white"/>
<path d="M59.6127 41.161H66.7095C68.5878 41.161 68.5878 38.3223 66.7095 38.3223H59.6127C57.7321 38.3223 57.7344 41.161 59.6127 41.161Z" fill="white"/>
<path d="M59.6127 17.0321H62.4514C64.3297 17.0321 64.3297 14.1934 62.4514 14.1934H59.6127C57.7321 14.1934 57.7344 17.0321 59.6127 17.0321Z" fill="white"/>
<path d="M69.5483 17.0321H79.4838C81.3644 17.0321 81.362 14.1934 79.4838 14.1934H69.5483C67.6676 14.1934 67.67 17.0321 69.5483 17.0321Z" fill="white"/>
<path d="M59.6127 29.8055H69.5482C71.4265 29.8055 71.4265 26.9668 69.5482 26.9668H59.6127C57.7321 26.9668 57.7344 29.8055 59.6127 29.8055Z" fill="white"/>
<mask id="mask0_1747_9547" style="mask-type:luminance" maskUnits="userSpaceOnUse" x="0" y="0" width="88" height="88">
<path d="M88 0H0V88H88V0Z" fill="white"/>
</mask>
<g mask="url(#mask0_1747_9547)">
<path d="M79.4846 26.9668H76.6459C74.7653 26.9668 74.7676 29.8055 76.6459 29.8055H79.4846C81.3653 29.8055 81.3629 26.9668 79.4846 26.9668Z" fill="white"/>
<path d="M19.871 51.0957C8.91355 51.0957 0 58.1002 0 66.7086C0 70.212 1.50688 73.6256 4.25806 76.3791V86.5796C4.25806 87.8523 5.7957 88.4673 6.68043 87.5826L12.9232 81.3398C15.1138 81.9927 17.4486 82.3215 19.8686 82.3215C30.826 82.3215 39.7396 75.317 39.7396 66.7086C39.7396 58.1002 30.826 51.0957 19.8686 51.0957H19.871ZM19.871 79.4828C17.4462 79.4828 15.1303 79.1114 12.9918 78.3804C12.4832 78.2054 11.9108 78.3355 11.5299 78.7187L7.09677 83.1518V75.7759C7.09677 75.3809 6.93355 75.0047 6.64495 74.7374C4.15398 72.4215 2.83871 69.6419 2.83871 66.7062C2.83871 59.6639 10.4796 53.932 19.871 53.932C29.2624 53.932 36.9032 59.6639 36.9032 66.7062C36.9032 73.7486 29.2624 79.4804 19.871 79.4804V79.4828Z" fill="white"/>
</g>
<path d="M22.0003 66.7091C22.0003 67.8848 21.0469 68.8381 19.8712 68.8381C18.6955 68.8381 17.7422 67.8848 17.7422 66.7091C17.7422 65.5334 18.6955 64.5801 19.8712 64.5801C21.0469 64.5801 22.0003 65.5334 22.0003 66.7091Z" fill="white"/>
<path d="M31.9358 66.7091C31.9358 67.8848 30.9825 68.8381 29.8068 68.8381C28.6311 68.8381 27.6777 67.8848 27.6777 66.7091C27.6777 65.5334 28.6311 64.5801 29.8068 64.5801C30.9825 64.5801 31.9358 65.5334 31.9358 66.7091Z" fill="white"/>
<path d="M12.0647 66.7091C12.0647 67.8848 11.1114 68.8381 9.93567 68.8381C8.75997 68.8381 7.80664 67.8848 7.80664 66.7091C7.80664 65.5334 8.75997 64.5801 9.93567 64.5801C11.1114 64.5801 12.0647 65.5334 12.0647 66.7091Z" fill="white"/>
<path d="M62.8232 74.8219L72.2572 69.3858C74.3129 68.203 74.3129 65.2271 72.2572 64.0419L62.8232 58.6105C60.7746 57.423 58.1914 58.9133 58.1914 61.2813V72.1512C58.1914 74.5499 60.7959 75.9858 62.8209 74.8243L62.8232 74.8219ZM61.0325 61.2789C61.0325 61.0968 61.2383 60.9714 61.4086 61.0684L70.8426 66.5045C71.0034 66.5968 71.0034 66.8333 70.8426 66.9256L61.411 72.3594C61.243 72.454 61.0348 72.3381 61.0348 72.1488V61.2789H61.0325Z" fill="white"/>
</g>
<defs>
<clipPath id="clip0_1747_9547">
<rect width="88" height="88" fill="white"/>
</clipPath>
</defs>
</svg>
