<svg width="88" height="88" viewBox="0 0 88 88" fill="none" xmlns="http://www.w3.org/2000/svg">
<g clip-path="url(#clip0_1747_9393)">
<path d="M58.6856 69.4099C59.3571 70.0814 60.4456 70.0814 61.1171 69.4099L69.4129 61.1141C69.736 60.791 69.9171 60.3555 69.9171 59.8995C69.9171 59.4435 69.736 59.008 69.4129 58.6849L67.0181 56.2901C67.8202 54.7891 68.4756 53.2124 68.9683 51.583H72.3531C73.3018 51.583 74.0718 50.813 74.0718 49.8643V38.1355C74.0718 37.1868 73.3018 36.4168 72.3531 36.4168H68.9683C68.4733 34.7874 67.8202 33.2108 67.0181 31.7097L69.4129 29.3172C69.736 28.9941 69.9171 28.5564 69.9171 28.1026C69.9171 27.6489 69.736 27.2089 69.4129 26.888L61.1171 18.5945C60.4456 17.923 59.3571 17.923 58.6856 18.5945L56.2931 20.9893C54.7921 20.1849 53.2154 19.5318 51.586 19.0391V15.6543C51.586 14.7055 50.816 13.9355 49.8673 13.9355H38.1362C37.1875 13.9355 36.4175 14.7055 36.4175 15.6543V19.0391C34.7881 19.5341 33.2137 20.1849 31.7104 20.9893L29.3156 18.5945C28.9925 18.2714 28.5571 18.0903 28.101 18.0903C27.645 18.0903 27.2073 18.2714 26.8864 18.5945L18.5906 26.888C18.2675 27.2112 18.0887 27.6489 18.0887 28.1026C18.0887 28.5564 18.2698 28.9964 18.5906 29.3172L20.9854 31.7097C20.181 33.2108 19.5279 34.7874 19.0352 36.4168H15.6504C14.7016 36.4168 13.9316 37.1868 13.9316 38.1355V49.8643C13.9316 50.813 14.7016 51.583 15.6504 51.583H19.0352C19.5302 53.2124 20.181 54.7868 20.9854 56.2901L18.5906 58.6849C18.2675 59.008 18.0887 59.4435 18.0887 59.8995C18.0887 60.3555 18.2698 60.7933 18.5906 61.1141L26.8864 69.4099C27.2096 69.7331 27.645 69.9141 28.101 69.9141C28.5571 69.9141 28.9948 69.7331 29.3156 69.4099L31.7104 67.0151C33.2114 67.8195 34.7881 68.4726 36.4175 68.9653V72.3501C36.4175 73.2989 37.1875 74.0689 38.1362 74.0689H49.8673C50.816 74.0689 51.586 73.2989 51.586 72.3501V68.9653C53.2154 68.4703 54.7898 67.8172 56.2931 67.0151L58.6856 69.4099ZM49.4525 65.9885C48.6848 66.1787 48.1462 66.8662 48.1462 67.6568V70.6314H39.8527V67.6568C39.8527 66.8662 39.3141 66.1787 38.5464 65.9885C36.3464 65.4453 34.2473 64.5745 32.3062 63.4035C31.6302 62.9933 30.7616 63.101 30.2025 63.6601L28.0987 65.7639L22.2343 59.8995L24.3381 57.7958C24.8973 57.2366 25.0027 56.368 24.5948 55.692C23.4237 53.751 22.5529 51.6518 22.0098 49.4541C21.8196 48.6864 21.1321 48.1478 20.3414 48.1478H17.3668V39.8566H20.3414C21.1321 39.8566 21.8196 39.3158 22.0098 38.5503C22.5529 36.3526 23.4237 34.2535 24.5948 32.3124C25.0027 31.6364 24.8973 30.7678 24.3381 30.2087L22.2343 28.1049L28.0987 22.2405L30.2025 24.3443C30.7616 24.9035 31.6302 25.0089 32.3062 24.601C34.2473 23.4299 36.3464 22.5591 38.5464 22.016C39.3141 21.8258 39.8527 21.1383 39.8527 20.3476V17.373H48.1462V20.3476C48.1462 21.1383 48.6848 21.8258 49.4525 22.016C51.6525 22.5591 53.7516 23.4299 55.6904 24.601C56.3664 25.0112 57.235 24.9035 57.7941 24.3443L59.8979 22.2405L65.7623 28.1049L63.6585 30.2087C63.0993 30.7678 62.9939 31.6364 63.4018 32.3124C64.5729 34.2535 65.4437 36.3503 65.9868 38.5503C66.1771 39.318 66.8646 39.8566 67.6552 39.8566H70.6298V48.1478H67.6552C66.8646 48.1478 66.1771 48.6864 65.9868 49.4541C65.4437 51.6541 64.5729 53.7533 63.4018 55.6943C62.9939 56.3703 63.0993 57.2389 63.6585 57.798L65.7623 59.9018L59.8979 65.7662L57.7941 63.6624C57.235 63.1033 56.3664 62.9978 55.6904 63.4058C53.7516 64.5791 51.6525 65.4476 49.4525 65.993V65.9885Z" fill="white"/>
<path d="M58.7035 51.4974V36.503C58.7035 35.8889 58.3758 35.3205 57.8442 35.0135L44.8596 27.5174C44.3279 27.2103 43.6725 27.2103 43.1408 27.5174L30.1562 35.0135C29.6246 35.3205 29.2969 35.8889 29.2969 36.503V51.4974C29.2969 52.1116 29.6246 52.6799 30.1562 52.987L43.1408 60.483C43.4067 60.6366 43.7023 60.7122 44.0002 60.7122C44.2981 60.7122 44.5938 60.6343 44.8596 60.483L57.8442 52.987C58.3758 52.6799 58.7035 52.1116 58.7035 51.4974ZM44.0002 30.9893L53.5473 36.503L44.0002 42.0145L34.4531 36.503L44.0002 30.9893ZM32.7344 39.4799L42.2815 44.9937V56.0189L32.7344 50.5051V39.4799ZM45.719 56.0166V44.9914L55.266 39.4776V50.5028L45.719 56.0166Z" fill="white"/>
<mask id="mask0_1747_9393" style="mask-type:luminance" maskUnits="userSpaceOnUse" x="0" y="0" width="88" height="88">
<path d="M88 0H0V88H88V0Z" fill="white"/>
</mask>
<g mask="url(#mask0_1747_9393)">
<path d="M44 3.70117C50.8452 3.70117 57.6056 5.4543 63.5502 8.77034C63.816 8.917 64.1025 8.98805 64.3844 8.98805C64.9871 8.98805 65.5715 8.6695 65.8877 8.10575C66.3506 7.27617 66.0527 6.23117 65.2231 5.76826C58.7698 2.16805 51.4319 0.263672 44 0.263672C43.049 0.263672 42.2812 1.03367 42.2812 1.98242C42.2812 2.93117 43.049 3.70117 44 3.70117Z" fill="white"/>
<path d="M86.7056 26.7112C85.8027 26.482 84.8883 27.0137 84.6317 27.9005C82.9175 23.6037 80.525 19.5635 77.5596 16.0068C76.95 15.278 75.8684 15.1795 75.1396 15.7868C74.4109 16.3941 74.3123 17.478 74.9196 18.2068C77.8506 21.7222 80.1767 25.7487 81.7717 30.0318L80.8436 29.4222C80.0506 28.902 78.985 29.122 78.4625 29.9172C77.9423 30.7101 78.1623 31.7757 78.9575 32.296L83.88 35.5272C84.1642 35.7128 84.4919 35.8091 84.8242 35.8091C85.0327 35.8091 85.2436 35.7701 85.4452 35.6922C85.9631 35.4905 86.3504 35.0528 86.4879 34.5143L87.9454 28.7989C88.1792 27.8799 87.6246 26.9449 86.7034 26.7089L86.7056 26.7112Z" fill="white"/>
<path d="M44.0007 84.3003C34.8066 84.3003 26.1487 81.2753 18.9643 75.5508C13.2007 70.9583 8.7847 64.828 6.2295 57.9714L7.15533 58.5787C7.94825 59.0989 9.01387 58.8789 9.53637 58.0837C10.0566 57.2907 9.83429 56.2251 9.04137 55.7049L4.11658 52.4714C3.65137 52.1666 3.06929 52.1047 2.55137 52.3064C2.03345 52.508 1.64616 52.9457 1.50866 53.4843L0.0534536 59.202C-0.180296 60.1232 0.374287 61.0583 1.29325 61.292C1.43533 61.3287 1.5797 61.3447 1.7195 61.3447C2.46887 61.3447 3.15179 60.8497 3.3672 60.1003C6.18366 67.1632 10.8335 73.4653 16.8216 78.2366C24.6224 84.4516 34.0182 87.7355 43.9985 87.7355C44.9472 87.7355 45.7172 86.9655 45.7172 86.0168C45.7172 85.068 44.9472 84.298 43.9985 84.298L44.0007 84.3003Z" fill="white"/>
<path d="M86.0191 42.2812C85.0703 42.2812 84.3003 43.049 84.3003 44C84.3003 53.1942 81.2753 61.8498 75.5508 69.0365C70.9583 74.7977 64.828 79.216 57.9714 81.7713L58.5787 80.8454C59.0989 80.0525 58.8789 78.9869 58.0837 78.4644C57.2907 77.9442 56.2251 78.1665 55.7049 78.9594L52.4714 83.8842C52.1666 84.3471 52.1047 84.9315 52.3064 85.4494C52.508 85.9673 52.9457 86.3546 53.4843 86.4921L59.1997 87.9496C59.3418 87.9863 59.4839 88.0023 59.626 88.0023C60.3937 88.0023 61.0926 87.4844 61.2897 86.7075C61.5189 85.8046 60.9872 84.8902 60.1003 84.6335C67.1632 81.8171 73.4653 77.1673 78.2366 71.1792C84.4516 63.3783 87.7355 53.9825 87.7355 44.0023C87.7355 43.0512 86.9655 42.2835 86.0168 42.2835L86.0191 42.2812Z" fill="white"/>
<path d="M1.98242 45.7195C2.93117 45.7195 3.70117 44.9495 3.70117 44.0007C3.70117 34.8066 6.72617 26.1487 12.4508 18.9643C17.041 13.2007 23.1735 8.78469 30.0301 6.22949L29.4228 7.15532C28.9026 7.94824 29.1226 9.01386 29.9178 9.53636C30.2089 9.72657 30.5366 9.81824 30.8574 9.81824C31.4189 9.81824 31.9666 9.54553 32.2966 9.04136L35.5301 4.11657C35.8349 3.65365 35.8968 3.06928 35.6951 2.55136C35.4958 2.03345 35.0558 1.64615 34.5172 1.50865L28.7995 0.0534451C27.8805 -0.180305 26.9433 0.374278 26.7095 1.29553C26.4803 2.19845 27.012 3.11282 27.8989 3.36949C20.8383 6.18594 14.5339 10.8357 9.76263 16.8239C3.54763 24.6224 0.263672 34.0205 0.263672 44.0007C0.263672 44.9495 1.03367 45.7195 1.98242 45.7195Z" fill="white"/>
</g>
<path d="M72.4941 11.6309C72.4941 12.5796 71.7241 13.3496 70.7754 13.3496C69.8266 13.3496 69.0566 12.5796 69.0566 11.6309C69.0566 10.6821 69.8266 9.91211 70.7754 9.91211C71.7241 9.91211 72.4941 10.6821 72.4941 11.6309Z" fill="white"/>
</g>
<defs>
<clipPath id="clip0_1747_9393">
<rect width="88" height="88" fill="white"/>
</clipPath>
</defs>
</svg>
