<svg width="164" height="28" viewBox="0 0 164 28" fill="none" xmlns="http://www.w3.org/2000/svg">
<path d="M26.6738 27.9995C24.9201 27.9995 23.3347 27.7148 21.9158 27.1452C20.4969 26.5757 19.2861 25.8006 18.2834 24.8184C17.2826 23.8379 16.5088 22.697 15.9658 21.3993C15.4229 20.1016 15.1523 18.7354 15.1523 17.3043C15.1523 15.821 15.4153 14.4205 15.945 13.1084C16.4729 11.7963 17.2391 10.6428 18.2418 9.64968C19.2426 8.65477 20.4609 7.86714 21.895 7.28317C23.3271 6.70101 24.9352 6.40723 26.7155 6.40723C28.4957 6.40723 30.0887 6.69921 31.4943 7.28317C32.9 7.86714 34.0956 8.64937 35.0832 9.62985C36.0707 10.6103 36.8218 11.7512 37.3383 13.0489C37.8529 14.3484 38.1102 15.7002 38.1102 17.1042C38.1102 17.4485 38.1026 17.7801 38.0894 18.0992C38.0742 18.4164 38.0402 18.6813 37.9853 18.894H21.0796C21.1628 19.7159 21.3709 20.4458 21.7058 21.0803C22.0406 21.7165 22.472 22.2608 22.9998 22.7114C23.5277 23.162 24.1274 23.5062 24.7952 23.7442C25.463 23.9839 26.1573 24.1028 26.8819 24.1028C27.9944 24.1028 29.0462 23.8433 30.0338 23.3278C31.0213 22.8105 31.6967 22.1292 32.0581 21.2803L36.8578 22.5528C36.0499 24.1443 34.7635 25.4492 32.9965 26.4711C31.2295 27.4895 29.1219 27.9995 26.6738 27.9995ZM32.3494 15.4335C32.2094 13.869 31.604 12.6164 30.5332 11.6755C29.4624 10.7347 28.1608 10.2643 26.6303 10.2643C25.8792 10.2643 25.1755 10.3904 24.5228 10.6428C23.8682 10.8951 23.2912 11.2466 22.7898 11.6972C22.2885 12.1478 21.8779 12.6903 21.5582 13.3265C21.2385 13.9627 21.0512 14.6657 20.9944 15.4335H32.3494Z" fill="white"/>
<path d="M89.4493 27.9995C87.6974 27.9995 86.1101 27.7148 84.6912 27.1452C83.2723 26.5757 82.0615 25.8006 81.0588 24.8184C80.058 23.8379 79.2843 22.697 78.7432 21.3993C78.2002 20.1016 77.9297 18.7354 77.9297 17.3043C77.9297 15.821 78.1945 14.4205 78.7224 13.1084C79.2521 11.7963 80.0164 10.6428 81.0191 9.64968C82.0199 8.65477 83.2364 7.86714 84.6704 7.28317C86.1045 6.70101 87.7106 6.40723 89.4909 6.40723C91.2711 6.40723 92.866 6.69921 94.2698 7.28317C95.6754 7.86714 96.8711 8.64937 97.8586 9.62985C98.8462 10.6103 99.5973 11.7512 100.114 13.0489C100.628 14.3484 100.886 15.7002 100.886 17.1042C100.886 17.4485 100.878 17.7801 100.865 18.0992C100.85 18.4164 100.816 18.6813 100.759 18.894H83.8531C83.9364 19.7159 84.1445 20.4458 84.4793 21.0803C84.8123 21.7165 85.2437 22.2608 85.7734 22.7114C86.3012 23.162 86.9009 23.5062 87.5688 23.7442C88.2366 23.9839 88.9309 24.1028 89.6555 24.1028C90.7679 24.1028 91.8179 23.8433 92.8073 23.3278C93.7949 22.8105 94.4703 22.1292 94.8316 21.2803L99.6332 22.5528C98.8254 24.1443 97.5389 25.4492 95.7719 26.4711C94.0068 27.4895 91.8992 27.9995 89.4493 27.9995ZM95.1287 15.4335C94.9887 13.869 94.3833 12.6164 93.3125 11.6755C92.2417 10.7347 90.9401 10.2643 89.4095 10.2643C88.6585 10.2643 87.9547 10.3904 87.302 10.6428C86.6474 10.8951 86.0704 11.2466 85.5691 11.6972C85.0677 12.1478 84.6572 12.6903 84.3374 13.3265C84.0177 13.9627 83.8304 14.6657 83.7756 15.4335H95.1287Z" fill="white"/>
<path d="M116.289 11.3758C114.592 11.4028 109.458 11.1378 108.86 16.4296V27.6006H103.268V6.7635H108.402V10.6782C109.653 6.76531 113.828 6.44629 115.164 6.44629C115.47 6.44629 115.699 6.4535 115.852 6.46612C116.006 6.48053 116.151 6.50036 116.291 6.52559V11.3758H116.289Z" fill="white"/>
<path d="M141.854 21.3976C142.397 22.6971 143.168 23.8362 144.171 24.8167C145.174 25.7972 146.383 26.574 147.802 27.1436C149.221 27.7131 150.806 27.9979 152.562 27.9979C155.01 27.9979 157.117 27.4878 158.884 26.4677C160.651 25.4476 161.938 24.1408 162.746 22.5493L157.944 21.2769C157.583 22.1258 156.907 22.8089 155.92 23.3244C154.932 23.8416 153.882 24.0994 152.768 24.0994C152.043 24.0994 151.349 23.9804 150.681 23.7407C150.013 23.5028 149.414 23.1585 148.886 22.708C148.358 22.2574 147.926 21.7131 147.592 21.0768C147.448 20.8011 147.331 20.5055 147.232 20.1973H141.434C141.551 20.6046 141.689 21.0047 141.854 21.3976Z" fill="#E95018"/>
<path d="M163.227 13.047C162.711 11.7493 161.96 10.6084 160.974 9.6279C159.986 8.64741 158.789 7.86519 157.385 7.28122C155.979 6.69906 154.387 6.40527 152.606 6.40527C150.826 6.40527 149.218 6.69726 147.786 7.28122C146.352 7.86519 145.135 8.65282 144.133 9.64772C143.132 10.6408 142.366 11.7943 141.838 13.1065C141.709 13.4273 141.599 13.7535 141.501 14.0851H147.148C147.231 13.8238 147.328 13.5679 147.451 13.3263C147.771 12.6901 148.181 12.1476 148.683 11.697C149.184 11.2464 149.761 10.895 150.416 10.6426C151.07 10.3903 151.772 10.2641 152.523 10.2641C154.054 10.2641 155.353 10.7364 156.426 11.6754C157.497 12.6162 158.102 13.8689 158.242 15.4333H122.883C122.94 14.6637 123.127 13.9626 123.447 13.3263C123.767 12.6901 124.177 12.1476 124.679 11.697C125.18 11.2464 125.757 10.895 126.411 10.6426C127.066 10.3903 127.768 10.2641 128.519 10.2641C130.05 10.2641 131.349 10.7364 132.422 11.6754C133.164 12.3278 133.678 13.1335 133.973 14.0851H139.575C139.475 13.7355 139.361 13.3894 139.227 13.047C138.712 11.7493 137.961 10.6084 136.974 9.6279C135.986 8.64741 134.789 7.86519 133.383 7.28122C131.977 6.69906 130.384 6.40527 128.604 6.40527C126.824 6.40527 125.216 6.69726 123.784 7.28122C122.35 7.86519 121.133 8.65282 120.13 9.64772C119.128 10.6408 118.363 11.7943 117.834 13.1065C117.306 14.4186 117.041 15.8172 117.041 17.3024C117.041 18.7334 117.312 20.0996 117.855 21.3973C118.397 22.6968 119.169 23.8359 120.172 24.8164C121.173 25.7969 122.384 26.5737 123.803 27.1433C125.221 27.7128 126.807 27.9976 128.561 27.9976C131.009 27.9976 133.116 27.4875 134.883 26.4674C136.65 25.4472 137.937 24.1405 138.745 22.549L133.945 21.2766C133.582 22.1255 132.908 22.8086 131.921 23.3241C130.931 23.8413 129.881 24.0991 128.769 24.0991C128.044 24.0991 127.348 23.9801 126.682 23.7404C126.014 23.5025 125.414 23.1582 124.887 22.7076C124.357 22.2571 123.927 21.7127 123.593 21.0765C123.26 20.4403 123.05 19.7121 122.968 18.8902H163.874C163.929 18.6776 163.963 18.4126 163.978 18.0954C163.992 17.7764 163.999 17.4465 163.999 17.1005C163.999 15.6983 163.742 14.3465 163.227 13.047Z" fill="#E95018"/>
<path d="M60.7702 15.7472C60.7702 13.3393 62.8191 11.3873 65.3467 11.3873C67.6793 11.3873 69.6015 13.0527 69.8834 15.2029C69.8852 15.2119 69.8852 15.2191 69.8871 15.2264C69.908 15.3976 69.9231 15.5688 69.9231 15.7454V27.5906H75.4265L75.4303 26.1397V15.7472C75.4303 10.4501 71.516 6.14065 65.9558 6.14065C64.3099 6.14065 61.9337 6.73002 60.7759 7.6276V0H55.1816V27.5924H60.7683V15.7472H60.7702Z" fill="white"/>
<path d="M13.0653 10.8654V6.77043H8.43206V0.00976562H2.8378V6.77043H0V10.8672H2.8378V19.5456C2.8378 19.834 2.85672 20.1025 2.88699 20.3638C3.11969 24.5543 6.75965 27.8977 11.2169 27.8977L13.035 27.8292L13.0539 22.5934H11.2188C9.6807 22.5934 8.43585 21.4056 8.43585 19.9421V13.5203H8.43395V10.8654H13.0653Z" fill="white"/>
<path d="M51.7645 10.8595V6.76457H47.1313V0.00390625H41.539V6.76457H38.7012V10.8613H41.539V19.5397C41.539 19.8281 41.5579 20.0966 41.5882 20.358C41.8209 24.5485 45.4608 27.8919 49.9181 27.8919L51.7362 27.8234L51.7551 22.5875H49.92C48.3819 22.5875 47.137 21.3998 47.137 19.9362V13.5144H47.1351V10.8595H51.7645Z" fill="white"/>
</svg>
