<svg width="217" height="55" viewBox="0 0 217 55" fill="none" xmlns="http://www.w3.org/2000/svg">
<path d="M50.06 39.245C48.2633 39.245 46.6533 38.9533 45.23 38.37C43.8067 37.7867 42.6633 36.9233 41.8 35.78C40.96 34.6367 40.5167 33.26 40.47 31.65H46.84C46.9333 32.56 47.2483 33.26 47.785 33.75C48.3217 34.2167 49.0217 34.45 49.885 34.45C50.7717 34.45 51.4717 34.2517 51.985 33.855C52.4983 33.435 52.755 32.8633 52.755 32.14C52.755 31.5333 52.545 31.0317 52.125 30.635C51.7283 30.2383 51.2267 29.9117 50.62 29.655C50.0367 29.3983 49.1967 29.1067 48.1 28.78C46.5133 28.29 45.2183 27.8 44.215 27.31C43.2117 26.82 42.3483 26.0967 41.625 25.14C40.9017 24.1833 40.54 22.935 40.54 21.395C40.54 19.1083 41.3683 17.3233 43.025 16.04C44.6817 14.7333 46.84 14.08 49.5 14.08C52.2067 14.08 54.3883 14.7333 56.045 16.04C57.7017 17.3233 58.5883 19.12 58.705 21.43H52.23C52.1833 20.6367 51.8917 20.0183 51.355 19.575C50.8183 19.1083 50.13 18.875 49.29 18.875C48.5667 18.875 47.9833 19.0733 47.54 19.47C47.0967 19.8433 46.875 20.3917 46.875 21.115C46.875 21.9083 47.2483 22.5267 47.995 22.97C48.7417 23.4133 49.9083 23.8917 51.495 24.405C53.0817 24.9417 54.365 25.455 55.345 25.945C56.3483 26.435 57.2117 27.1467 57.935 28.08C58.6583 29.0133 59.02 30.215 59.02 31.685C59.02 33.085 58.6583 34.3567 57.935 35.5C57.235 36.6433 56.2083 37.5533 54.855 38.23C53.5017 38.9067 51.9033 39.245 50.06 39.245ZM60.1132 29.2C60.1132 27.1933 60.4865 25.4317 61.2332 23.915C62.0032 22.3983 63.0415 21.2317 64.3482 20.415C65.6549 19.5983 67.1132 19.19 68.7232 19.19C70.0999 19.19 71.3015 19.47 72.3282 20.03C73.3782 20.59 74.1832 21.325 74.7432 22.235V19.47H80.7282V39H74.7432V36.235C74.1599 37.145 73.3432 37.88 72.2932 38.44C71.2665 39 70.0649 39.28 68.6882 39.28C67.1015 39.28 65.6549 38.8717 64.3482 38.055C63.0415 37.215 62.0032 36.0367 61.2332 34.52C60.4865 32.98 60.1132 31.2067 60.1132 29.2ZM74.7432 29.235C74.7432 27.7417 74.3232 26.5633 73.4832 25.7C72.6665 24.8367 71.6632 24.405 70.4732 24.405C69.2832 24.405 68.2682 24.8367 67.4282 25.7C66.6115 26.54 66.2032 27.7067 66.2032 29.2C66.2032 30.6933 66.6115 31.8833 67.4282 32.77C68.2682 33.6333 69.2832 34.065 70.4732 34.065C71.6632 34.065 72.6665 33.6333 73.4832 32.77C74.3232 31.9067 74.7432 30.7283 74.7432 29.235ZM89.6431 13.1V39H83.6581V13.1H89.6431ZM110.99 28.92C110.99 29.48 110.955 30.0633 110.885 30.67H97.3404C97.4337 31.8833 97.8187 32.8167 98.4954 33.47C99.1954 34.1 100.047 34.415 101.05 34.415C102.544 34.415 103.582 33.785 104.165 32.525H110.535C110.209 33.8083 109.614 34.9633 108.75 35.99C107.91 37.0167 106.849 37.8217 105.565 38.405C104.282 38.9883 102.847 39.28 101.26 39.28C99.347 39.28 97.6437 38.8717 96.1504 38.055C94.657 37.2383 93.4904 36.0717 92.6504 34.555C91.8104 33.0383 91.3904 31.265 91.3904 29.235C91.3904 27.205 91.7987 25.4317 92.6154 23.915C93.4554 22.3983 94.622 21.2317 96.1154 20.415C97.6087 19.5983 99.3237 19.19 101.26 19.19C103.15 19.19 104.83 19.5867 106.3 20.38C107.77 21.1733 108.914 22.305 109.73 23.775C110.57 25.245 110.99 26.96 110.99 28.92ZM104.865 27.345C104.865 26.3183 104.515 25.5017 103.815 24.895C103.115 24.2883 102.24 23.985 101.19 23.985C100.187 23.985 99.3354 24.2767 98.6354 24.86C97.9587 25.4433 97.5387 26.2717 97.3754 27.345H104.865ZM120.693 39.28C118.989 39.28 117.473 38.9883 116.143 38.405C114.813 37.8217 113.763 37.0283 112.993 36.025C112.223 34.9983 111.791 33.855 111.698 32.595H117.613C117.683 33.2717 117.998 33.82 118.558 34.24C119.118 34.66 119.806 34.87 120.623 34.87C121.369 34.87 121.941 34.73 122.338 34.45C122.758 34.1467 122.968 33.7617 122.968 33.295C122.968 32.735 122.676 32.3267 122.093 32.07C121.509 31.79 120.564 31.4867 119.258 31.16C117.858 30.8333 116.691 30.495 115.758 30.145C114.824 29.7717 114.019 29.2 113.343 28.43C112.666 27.6367 112.328 26.575 112.328 25.245C112.328 24.125 112.631 23.11 113.238 22.2C113.868 21.2667 114.778 20.5317 115.968 19.995C117.181 19.4583 118.616 19.19 120.273 19.19C122.723 19.19 124.648 19.7967 126.048 21.01C127.471 22.2233 128.288 23.8333 128.498 25.84H122.968C122.874 25.1633 122.571 24.6267 122.058 24.23C121.568 23.8333 120.914 23.635 120.098 23.635C119.398 23.635 118.861 23.775 118.488 24.055C118.114 24.3117 117.928 24.6733 117.928 25.14C117.928 25.7 118.219 26.12 118.803 26.4C119.409 26.68 120.343 26.96 121.603 27.24C123.049 27.6133 124.228 27.9867 125.138 28.36C126.048 28.71 126.841 29.2933 127.518 30.11C128.218 30.9033 128.579 31.9767 128.603 33.33C128.603 34.4733 128.276 35.5 127.623 36.41C126.993 37.2967 126.071 37.9967 124.858 38.51C123.668 39.0233 122.279 39.28 120.693 39.28ZM136.849 22.235C137.433 21.325 138.238 20.59 139.264 20.03C140.291 19.47 141.493 19.19 142.869 19.19C144.479 19.19 145.938 19.5983 147.244 20.415C148.551 21.2317 149.578 22.3983 150.324 23.915C151.094 25.4317 151.479 27.1933 151.479 29.2C151.479 31.2067 151.094 32.98 150.324 34.52C149.578 36.0367 148.551 37.215 147.244 38.055C145.938 38.8717 144.479 39.28 142.869 39.28C141.516 39.28 140.314 39 139.264 38.44C138.238 37.88 137.433 37.1567 136.849 36.27V48.31H130.864V19.47H136.849V22.235ZM145.389 29.2C145.389 27.7067 144.969 26.54 144.129 25.7C143.313 24.8367 142.298 24.405 141.084 24.405C139.894 24.405 138.879 24.8367 138.039 25.7C137.223 26.5633 136.814 27.7417 136.814 29.235C136.814 30.7283 137.223 31.9067 138.039 32.77C138.879 33.6333 139.894 34.065 141.084 34.065C142.274 34.065 143.289 33.6333 144.129 32.77C144.969 31.8833 145.389 30.6933 145.389 29.2ZM156.229 17.44C155.179 17.44 154.316 17.1367 153.639 16.53C152.986 15.9 152.659 15.13 152.659 14.22C152.659 13.2867 152.986 12.5167 153.639 11.91C154.316 11.28 155.179 10.965 156.229 10.965C157.256 10.965 158.096 11.28 158.749 11.91C159.426 12.5167 159.764 13.2867 159.764 14.22C159.764 15.13 159.426 15.9 158.749 16.53C158.096 17.1367 157.256 17.44 156.229 17.44ZM159.204 19.47V39H153.219V19.47H159.204ZM173.026 33.925V39H169.981C167.811 39 166.12 38.475 164.906 37.425C163.693 36.3517 163.086 34.6133 163.086 32.21V24.44H160.706V19.47H163.086V14.71H169.071V19.47H172.991V24.44H169.071V32.28C169.071 32.8633 169.211 33.2833 169.491 33.54C169.771 33.7967 170.238 33.925 170.891 33.925H173.026ZM173.77 29.235C173.77 27.205 174.179 25.4317 174.995 23.915C175.835 22.3983 176.99 21.2317 178.46 20.415C179.954 19.5983 181.657 19.19 183.57 19.19C186.02 19.19 188.062 19.8317 189.695 21.115C191.352 22.3983 192.437 24.2067 192.95 26.54H186.58C186.044 25.0467 185.005 24.3 183.465 24.3C182.369 24.3 181.494 24.7317 180.84 25.595C180.187 26.435 179.86 27.6483 179.86 29.235C179.86 30.8217 180.187 32.0467 180.84 32.91C181.494 33.75 182.369 34.17 183.465 34.17C185.005 34.17 186.044 33.4233 186.58 31.93H192.95C192.437 34.2167 191.352 36.0133 189.695 37.32C188.039 38.6267 185.997 39.28 183.57 39.28C181.657 39.28 179.954 38.8717 178.46 38.055C176.99 37.2383 175.835 36.0717 174.995 34.555C174.179 33.0383 173.77 31.265 173.77 29.235ZM206.757 19.26C208.997 19.26 210.793 20.0067 212.147 21.5C213.5 22.97 214.177 25 214.177 27.59V39H208.227V28.395C208.227 27.0883 207.888 26.0733 207.212 25.35C206.535 24.6267 205.625 24.265 204.482 24.265C203.338 24.265 202.428 24.6267 201.752 25.35C201.075 26.0733 200.737 27.0883 200.737 28.395V39H194.752V13.1H200.737V22.095C201.343 21.2317 202.172 20.5433 203.222 20.03C204.272 19.5167 205.45 19.26 206.757 19.26Z" fill="white"/>
<path d="M151.039 47.2405C151.252 46.8804 151.564 46.5865 151.975 46.3587C152.385 46.1309 152.853 46.017 153.378 46.017C153.941 46.017 154.447 46.1456 154.896 46.4028C155.345 46.66 155.699 47.0237 155.958 47.494C156.217 47.9569 156.346 48.497 156.346 49.1142C156.346 49.7241 156.217 50.2679 155.958 50.7455C155.699 51.2231 155.341 51.5942 154.885 51.8587C154.436 52.1232 153.934 52.2555 153.378 52.2555C152.838 52.2555 152.363 52.1416 151.952 51.9138C151.548 51.686 151.244 51.3958 151.039 51.0431V52.1563H150V44H151.039V47.2405ZM155.284 49.1142C155.284 48.6587 155.189 48.2619 154.999 47.9238C154.809 47.5858 154.55 47.3287 154.223 47.1523C153.903 46.976 153.55 46.8878 153.162 46.8878C152.781 46.8878 152.427 46.9796 152.1 47.1633C151.78 47.3397 151.522 47.6005 151.324 47.9459C151.134 48.2839 151.039 48.677 151.039 49.1253C151.039 49.5808 151.134 49.9813 151.324 50.3267C151.522 50.6647 151.78 50.9255 152.1 51.1092C152.427 51.2856 152.781 51.3737 153.162 51.3737C153.55 51.3737 153.903 51.2856 154.223 51.1092C154.55 50.9255 154.809 50.6647 154.999 50.3267C155.189 49.9813 155.284 49.5772 155.284 49.1142Z" fill="white"/>
<path d="M163.1 46.1162L159.334 55H158.261L159.493 52.0902L156.971 46.1162H158.124L160.087 51.01L162.027 46.1162H163.1Z" fill="white"/>
<path d="M168.454 46.9429V50.503C168.454 50.7969 168.519 51.0063 168.648 51.1313C168.777 51.2488 169.002 51.3076 169.321 51.3076H170.086V52.1563H169.15C168.572 52.1563 168.138 52.0277 167.849 51.7705C167.56 51.5134 167.415 51.0908 167.415 50.503V46.9429H166.605V46.1162H167.415V44.5952H168.454V46.1162H170.086V46.9429H168.454Z" fill="white"/>
<path d="M177.051 48.9048C177.051 49.0959 177.04 49.2979 177.017 49.511H172.018C172.056 50.1062 172.265 50.5728 172.646 50.9108C173.034 51.2415 173.502 51.4068 174.049 51.4068C174.498 51.4068 174.871 51.3076 175.168 51.1092C175.472 50.9035 175.685 50.6316 175.807 50.2936H176.926C176.758 50.8741 176.423 51.348 175.921 51.7154C175.419 52.0755 174.795 52.2555 174.049 52.2555C173.456 52.2555 172.923 52.1269 172.452 51.8697C171.987 51.6126 171.622 51.2488 171.356 50.7786C171.09 50.3009 170.956 49.7498 170.956 49.1253C170.956 48.5007 171.086 47.9532 171.344 47.483C171.603 47.0127 171.965 46.6526 172.429 46.4028C172.901 46.1456 173.441 46.017 174.049 46.017C174.643 46.017 175.168 46.142 175.625 46.3918C176.081 46.6416 176.431 46.987 176.675 47.4279C176.926 47.8614 177.051 48.3537 177.051 48.9048ZM175.978 48.6954C175.978 48.3133 175.891 47.9863 175.716 47.7144C175.541 47.4352 175.301 47.2258 174.997 47.0862C174.7 46.9392 174.369 46.8657 174.004 46.8657C173.479 46.8657 173.03 47.0274 172.657 47.3507C172.292 47.674 172.083 48.1222 172.029 48.6954H175.978Z" fill="white"/>
<path d="M179.689 46.9429V50.503C179.689 50.7969 179.754 51.0063 179.883 51.1313C180.012 51.2488 180.237 51.3076 180.556 51.3076H181.321V52.1563H180.385C179.807 52.1563 179.373 52.0277 179.084 51.7705C178.795 51.5134 178.65 51.0908 178.65 50.503V46.9429H177.84V46.1162H178.65V44.5952H179.689V46.1162H181.321V46.9429H179.689Z" fill="white"/>
<path d="M185.684 46.006C186.156 46.006 186.582 46.1052 186.962 46.3036C187.343 46.4947 187.64 46.7849 187.853 47.1743C188.073 47.5638 188.184 48.0377 188.184 48.5962V52.1563H187.156V48.7395C187.156 48.1369 187 47.6777 186.688 47.3617C186.376 47.0384 185.95 46.8768 185.41 46.8768C184.862 46.8768 184.425 47.0421 184.098 47.3727C183.778 47.7034 183.618 48.1847 183.618 48.8166V52.1563H182.58V44H183.618V46.976C183.824 46.6673 184.105 46.4285 184.463 46.2595C184.828 46.0905 185.235 46.006 185.684 46.006Z" fill="white"/>
<path d="M195.587 48.9048C195.587 49.0959 195.575 49.2979 195.553 49.511H190.554C190.592 50.1062 190.801 50.5728 191.181 50.9108C191.569 51.2415 192.037 51.4068 192.585 51.4068C193.034 51.4068 193.407 51.3076 193.704 51.1092C194.008 50.9035 194.221 50.6316 194.343 50.2936H195.461C195.294 50.8741 194.959 51.348 194.457 51.7154C193.955 52.0755 193.331 52.2555 192.585 52.2555C191.992 52.2555 191.459 52.1269 190.987 51.8697C190.523 51.6126 190.158 51.2488 189.892 50.7786C189.625 50.3009 189.492 49.7498 189.492 49.1253C189.492 48.5007 189.621 47.9532 189.88 47.483C190.139 47.0127 190.5 46.6526 190.964 46.4028C191.436 46.1456 191.976 46.017 192.585 46.017C193.179 46.017 193.704 46.142 194.16 46.3918C194.617 46.6416 194.967 46.987 195.21 47.4279C195.461 47.8614 195.587 48.3537 195.587 48.9048ZM194.514 48.6954C194.514 48.3133 194.427 47.9863 194.252 47.7144C194.077 47.4352 193.837 47.2258 193.532 47.0862C193.236 46.9392 192.905 46.8657 192.54 46.8657C192.014 46.8657 191.566 47.0274 191.193 47.3507C190.827 47.674 190.618 48.1222 190.565 48.6954H194.514Z" fill="white"/>
<path d="M197.996 47.0972C198.179 46.7518 198.438 46.4836 198.773 46.2926C199.115 46.1015 199.53 46.006 200.017 46.006V47.0421H199.743C198.579 47.0421 197.996 47.652 197.996 48.8717V52.1563H196.958V46.1162H197.996V47.0972Z" fill="white"/>
<path d="M206.922 48.9048C206.922 49.0959 206.911 49.2979 206.888 49.511H201.889C201.927 50.1062 202.136 50.5728 202.517 50.9108C202.905 51.2415 203.373 51.4068 203.921 51.4068C204.37 51.4068 204.742 51.3076 205.039 51.1092C205.343 50.9035 205.557 50.6316 205.678 50.2936H206.797C206.629 50.8741 206.295 51.348 205.792 51.7154C205.29 52.0755 204.666 52.2555 203.921 52.2555C203.327 52.2555 202.794 52.1269 202.323 51.8697C201.859 51.6126 201.493 51.2488 201.227 50.7786C200.961 50.3009 200.828 49.7498 200.828 49.1253C200.828 48.5007 200.957 47.9532 201.216 47.483C201.474 47.0127 201.836 46.6526 202.3 46.4028C202.772 46.1456 203.312 46.017 203.921 46.017C204.514 46.017 205.039 46.142 205.496 46.3918C205.952 46.6416 206.302 46.987 206.546 47.4279C206.797 47.8614 206.922 48.3537 206.922 48.9048ZM205.849 48.6954C205.849 48.3133 205.762 47.9863 205.587 47.7144C205.412 47.4352 205.172 47.2258 204.868 47.0862C204.571 46.9392 204.24 46.8657 203.875 46.8657C203.35 46.8657 202.901 47.0274 202.528 47.3507C202.163 47.674 201.954 48.1222 201.9 48.6954H205.849Z" fill="white"/>
<path d="M214 48.9048C214 49.0959 213.989 49.2979 213.966 49.511H208.967C209.005 50.1062 209.214 50.5728 209.594 50.9108C209.982 51.2415 210.45 51.4068 210.998 51.4068C211.447 51.4068 211.82 51.3076 212.117 51.1092C212.421 50.9035 212.634 50.6316 212.756 50.2936H213.874C213.707 50.8741 213.372 51.348 212.87 51.7154C212.368 52.0755 211.744 52.2555 210.998 52.2555C210.405 52.2555 209.872 52.1269 209.4 51.8697C208.936 51.6126 208.571 51.2488 208.305 50.7786C208.038 50.3009 207.905 49.7498 207.905 49.1253C207.905 48.5007 208.035 47.9532 208.293 47.483C208.552 47.0127 208.913 46.6526 209.378 46.4028C209.849 46.1456 210.39 46.017 210.998 46.017C211.592 46.017 212.117 46.142 212.573 46.3918C213.03 46.6416 213.38 46.987 213.623 47.4279C213.874 47.8614 214 48.3537 214 48.9048ZM212.927 48.6954C212.927 48.3133 212.84 47.9863 212.665 47.7144C212.49 47.4352 212.25 47.2258 211.946 47.0862C211.649 46.9392 211.318 46.8657 210.953 46.8657C210.428 46.8657 209.979 47.0274 209.606 47.3507C209.241 47.674 209.031 48.1222 208.978 48.6954H212.927Z" fill="white"/>
<g clip-path="url(#clip0_267_829)">
<path d="M32.887 22.6159C31.7862 19.9728 29.9422 17.7065 27.5788 16.0922C25.2155 14.4779 22.4346 13.5851 19.5739 13.5223C20.7701 15.2026 21.4587 17.1914 21.5577 19.2521C21.9896 19.3597 22.4127 19.4999 22.8233 19.6716C24.2852 20.2773 25.5682 21.2468 26.5505 22.488C27.5329 23.7292 28.182 25.201 28.4364 26.7638C28.6907 28.3266 28.5419 29.9285 28.0039 31.4175C27.4659 32.9066 26.5567 34.2334 25.3624 35.272C24.1682 36.3107 22.7286 37.0267 21.1802 37.3523C19.6317 37.6779 18.0259 37.6021 16.5149 37.1322C15.0039 36.6623 13.638 35.8139 12.5467 34.6674C11.4554 33.521 10.6749 32.1145 10.2793 30.5814C8.2177 30.4868 6.22671 29.8012 4.54346 28.6063C4.59547 30.7698 5.12283 32.8953 6.08811 34.8319C7.05338 36.7684 8.43287 38.4686 10.1286 39.8116C11.8244 41.1546 13.7949 42.1075 15.9001 42.6026C18.0053 43.0977 20.1936 43.123 22.3096 42.6765C24.4257 42.23 26.4175 41.3228 28.1438 40.0193C29.87 38.7157 31.2883 37.0479 32.2979 35.1341C33.3075 33.2203 33.8837 31.1075 33.9855 28.9458C34.0873 26.784 33.7122 24.6264 32.887 22.6261V22.6159ZM10.143 26.564C10.4844 24.7209 11.3749 23.0243 12.6974 21.6968C14.0199 20.3694 15.7127 19.4732 17.5534 19.1259C17.4026 17.5582 16.7104 16.0922 15.596 14.9802C15.324 14.7059 15.0285 14.4558 14.7129 14.233C12.4986 14.9588 10.4868 16.1977 8.84131 17.8486C7.1958 19.4995 5.96305 21.516 5.2434 23.7337C5.46344 24.0442 5.70988 24.3351 5.97996 24.6032C7.0966 25.7227 8.56923 26.4164 10.143 26.564Z" fill="#FEF152"/>
<path d="M21.5579 19.2521C20.8096 19.0625 20.0407 18.9667 19.2688 18.9671C18.6934 18.9674 18.1193 19.0205 17.5536 19.1259C17.6522 20.1252 17.5284 21.1339 17.1912 22.0796C16.854 23.0254 16.3117 23.8847 15.6032 24.5958C14.8948 25.3069 14.0377 25.8522 13.0937 26.1925C12.1496 26.5328 11.142 26.6597 10.1432 26.564C9.89818 27.8939 9.9447 29.2611 10.2795 30.5712C10.4484 30.5712 10.6193 30.5834 10.7882 30.5834C12.2048 30.585 13.6078 30.307 14.9169 29.7652C16.226 29.2235 17.4154 28.4286 18.4172 27.4262C19.4189 26.4238 20.2131 25.2335 20.7545 23.9234C21.2959 22.6134 21.5737 21.2094 21.5721 19.7917C21.5721 19.6105 21.568 19.4313 21.5579 19.2521ZM10.7882 12.9889C12.1934 12.9885 13.5643 13.4231 14.7131 14.233C16.185 13.7576 17.7222 13.5164 19.2688 13.5183H19.574C18.6645 12.2401 17.4873 11.1759 16.1246 10.3996C14.7619 9.62341 13.2464 9.1539 11.6838 9.02384C10.1212 8.89377 8.54907 9.10627 7.07694 9.64653C5.60481 10.1868 4.26812 11.0418 3.16003 12.152C2.05104 13.2632 1.19747 14.6031 0.658801 16.0782C0.120132 17.5533 -0.0906914 19.1282 0.041018 20.6932C0.172727 22.2582 0.643801 23.7756 1.42143 25.1398C2.19905 26.504 3.26453 27.6821 4.54363 28.592C4.54363 28.4801 4.54363 28.3681 4.54363 28.2561C4.54158 26.7198 4.77911 25.1926 5.24764 23.7297C4.52647 22.7118 4.09884 21.5152 4.01149 20.2705C3.92414 19.0258 4.18043 17.7811 4.75236 16.6724C5.32428 15.5636 6.18981 14.6336 7.25431 13.984C8.31882 13.3343 9.54132 12.9901 10.7882 12.9889Z" fill="white"/>
</g>
<defs>
<clipPath id="clip0_267_829">
<rect width="34" height="34" fill="white" transform="translate(0 9)"/>
</clipPath>
</defs>
</svg>
